<?xml version="1.0" encoding="UTF-8" standalone="no"?>
<svg
   viewBox="0 0 354.55997 354.55996"
   version="1.1"
   id="svg13"
   sodipodi:docname="White Stone Finals-02.svg"
   width="354.55997"
   height="354.55997"
   inkscape:version="1.4.2 (ebf0e940d0, 2025-05-08)"
   xmlns:inkscape="http://www.inkscape.org/namespaces/inkscape"
   xmlns:sodipodi="http://sodipodi.sourceforge.net/DTD/sodipodi-0.dtd"
   xmlns="http://www.w3.org/2000/svg"
   xmlns:svg="http://www.w3.org/2000/svg">
  <sodipodi:namedview
     id="namedview13"
     pagecolor="#ffffff"
     bordercolor="#000000"
     borderopacity="0.25"
     inkscape:showpageshadow="2"
     inkscape:pageopacity="0.0"
     inkscape:pagecheckerboard="0"
     inkscape:deskcolor="#d1d1d1"
     inkscape:zoom="2.465069"
     inkscape:cx="175.04581"
     inkscape:cy="176.87132"
     inkscape:window-width="1920"
     inkscape:window-height="1142"
     inkscape:window-x="0"
     inkscape:window-y="26"
     inkscape:window-maximized="1"
     inkscape:current-layer="svg13" />
  <defs
     id="defs4">
    <style
       id="style1">
      .cls-1 {
        filter: url(#AI_GaussianBlur_7);
        opacity: .5;
      }

      .cls-2 {
        fill: #fff;
      }

      .cls-3 {
        fill: #f9f9f9;
      }

      .cls-4 {
        fill: #f2f2f2;
      }

      .cls-5 {
        filter: url(#AI_GaussianBlur_4);
      }

      .cls-6 {
        filter: url(#AI_GaussianBlur_9-2);
      }

      .cls-7 {
        filter: url(#AI_GaussianBlur_9);
      }

      .cls-8 {
        fill: #f7f7f7;
      }
    </style>
    <filter
       id="AI_GaussianBlur_4"
       x="-0.028927862"
       y="-0.028927862"
       width="1.0578557"
       height="1.0578557">
      <feGaussianBlur
         stdDeviation="4"
         id="feGaussianBlur1" />
    </filter>
    <filter
       id="AI_GaussianBlur_7"
       x="-0.052342972"
       y="-0.052342972"
       width="1.1046859"
       height="1.1046859">
      <feGaussianBlur
         stdDeviation="7"
         id="feGaussianBlur2" />
    </filter>
    <filter
       id="AI_GaussianBlur_9"
       x="-0.073175691"
       y="-0.073175691"
       width="1.1463514"
       height="1.1463514">
      <feGaussianBlur
         stdDeviation="9"
         id="feGaussianBlur3" />
    </filter>
    <filter
       id="AI_GaussianBlur_9-2"
       data-name="AI_GaussianBlur_9"
       x="-0.079202112"
       y="-0.079202112"
       width="1.1584042"
       height="1.1584042">
      <feGaussianBlur
         stdDeviation="9"
         id="feGaussianBlur4" />
    </filter>
  </defs>
  <g
     id="Base_Layer"
     data-name="Base Layer"
     transform="translate(-4.57001,-3.5000027)">
    <circle
       class="cls-2"
       cx="181.85001"
       cy="180.78"
       r="176.67999"
       id="circle4" />
  </g>
  <g
     id="Second_Base"
     data-name="Second Base"
     transform="translate(-4.57001,-3.5000027)">
    <g
       class="cls-5"
       id="g5">
      <circle
         class="cls-8"
         cx="181.85001"
         cy="180.78"
         r="165.92999"
         id="circle5" />
    </g>
  </g>
  <g
     id="Darker"
     transform="translate(-4.57001,-3.5000027)">
    <g
       class="cls-1"
       id="g6">
      <circle
         class="cls-4"
         cx="181.85001"
         cy="180.78"
         r="160.48"
         id="circle6" />
    </g>
  </g>
  <g
     id="Lighter"
     transform="translate(-4.57001,-3.5000027)">
    <g
       class="cls-7"
       id="g7">
      <circle
         class="cls-3"
         cx="181.85001"
         cy="180.78"
         r="147.59"
         id="circle7" />
    </g>
  </g>
  <g
     id="Highlight"
     transform="translate(-4.57001,-3.5000027)">
    <g
       class="cls-6"
       id="g8">
      <circle
         class="cls-2"
         cx="181.85001"
         cy="180.78"
         r="136.36"
         id="circle8" />
    </g>
  </g>
  <g
     id="Layer_9"
     data-name="Layer 9"
     transform="translate(-4.57001,-3.5000027)">
    <g
       id="g13">
      <path
         class="cls-4"
         d="m 31.82,96.12 c -0.84,-1.51 -1.85,-3.06 -2.97,-4.45 -1.91,3.25 -3.71,6.56 -5.41,9.93 6.07,48.13 4.16,97.26 -5.62,144.78 0.68,1.66 1.39,3.31 2.11,4.94 10.04,-17.84 14.03,-38.78 17.55,-59.13 5.58,-32.26 10.19,-67.42 -5.66,-96.07 z"
         id="path8" />
      <path
         class="cls-4"
         d="M 83.33,128.89 C 82.16,107.18 78.61,85.58 72.32,64.98 71.54,62.41 69.32,53.7 66.7,46.63 c -2.67,2.27 -5.28,4.62 -7.81,7.04 0.87,3.07 1.72,5.7 1.96,6.93 14.96,77.15 12.27,159.85 -14.57,232.65 1.07,1.27 2.17,2.52 3.28,3.76 10.88,-16.23 17.17,-36.32 21.96,-56.1 8.83,-36.46 13.83,-74.33 11.8,-112.02 z"
         id="path9" />
      <path
         class="cls-4"
         d="m 136.13,341.24 c 3.12,-4.51 5.16,-9.67 7.14,-14.79 13.05,-33.77 24.84,-68.03 35.33,-102.69 C 199.43,155 187,76.96 145.85,18.07 c -2.02,-2.89 -4.16,-5.79 -6.74,-8.18 -3.36,0.8 -6.69,1.7 -9.97,2.7 4.13,8.1 10.16,15.25 15.4,22.76 19.01,27.27 28,60.62 29.91,93.81 1.91,33.19 -2.9,66.41 -9.53,98.98 -8.35,41.03 -20.03,82.38 -42.7,117.35 2.56,0.89 5.15,1.73 7.76,2.51 2.33,-1.98 4.41,-4.25 6.15,-6.77 z"
         id="path10" />
      <path
         class="cls-4"
         d="m 182.73,5.13 c -0.93,-0.01 -1.87,-0.02 -2.8,-0.02 -2.98,0 -5.94,0.08 -8.88,0.22 16.87,34.99 24.98,76.72 26.79,118.25 1.92,44.09 -2.91,88.23 -9.56,131.51 -5.19,33.77 -11.66,67.7 -21.23,99.68 2.71,0.2 5.45,0.33 8.19,0.41 9.69,-34.95 18.61,-70.27 26.76,-105.9 C 220.39,168.86 212.93,78.9 182.73,5.14 Z"
         id="path11" />
      <path
         class="cls-4"
         d="m 222,198.74 c 1.53,-14 1.07,-28.15 0.21,-42.21 -3.08,-50.81 -11.23,-101.32 -24.28,-150.52 -1.17,-0.12 -2.35,-0.23 -3.52,-0.32 13.09,49.31 21.27,99.92 24.36,150.84 0.85,14.06 1.32,28.2 -0.21,42.21 -1.04,9.46 -2.98,18.8 -4.92,28.12 -8.89,42.74 -17.79,85.48 -26.68,128.22 1.16,-0.05 2.32,-0.1 3.47,-0.17 8.88,-42.68 17.76,-85.37 26.65,-128.05 1.94,-9.32 3.88,-18.66 4.92,-28.12 z"
         id="path12" />
      <path
         class="cls-4"
         d="m 72.61,41.84 c -0.82,0.63 -1.63,1.27 -2.43,1.92 28.78,81.19 29.68,172.02 2.38,253.74 -1.77,5.3 -3.73,10.69 -7.24,15.01 1.05,0.91 2.11,1.81 3.18,2.69 2.75,-3.89 4.56,-8.31 6.23,-12.67 31.32,-81.97 28.86,-177.96 -2.12,-260.69 z"
         id="path13" />
    </g>
  </g>
</svg>
