<?xml version="1.0" encoding="UTF-8" standalone="no"?>
<svg
   viewBox="0 0 353.35999 353.35998"
   version="1.1"
   id="svg20"
   sodipodi:docname="White Stone Finals-05.svg"
   width="353.35999"
   height="353.35999"
   inkscape:version="1.4.2 (ebf0e940d0, 2025-05-08)"
   xmlns:inkscape="http://www.inkscape.org/namespaces/inkscape"
   xmlns:sodipodi="http://sodipodi.sourceforge.net/DTD/sodipodi-0.dtd"
   xmlns="http://www.w3.org/2000/svg"
   xmlns:svg="http://www.w3.org/2000/svg">
  <sodipodi:namedview
     id="namedview20"
     pagecolor="#ffffff"
     bordercolor="#000000"
     borderopacity="0.25"
     inkscape:showpageshadow="2"
     inkscape:pageopacity="0.0"
     inkscape:pagecheckerboard="0"
     inkscape:deskcolor="#d1d1d1"
     inkscape:zoom="2.465069"
     inkscape:cx="175.85715"
     inkscape:cy="178.08832"
     inkscape:window-width="1920"
     inkscape:window-height="1142"
     inkscape:window-x="0"
     inkscape:window-y="26"
     inkscape:window-maximized="1"
     inkscape:current-layer="svg20" />
  <defs
     id="defs4">
    <style
       id="style1">
      .cls-1 {
        filter: url(#AI_GaussianBlur_7);
        opacity: .5;
      }

      .cls-2 {
        fill: #fff;
      }

      .cls-3 {
        fill: #f9f9f9;
      }

      .cls-4 {
        fill: #f2f2f2;
      }

      .cls-5 {
        filter: url(#AI_GaussianBlur_4);
      }

      .cls-6 {
        filter: url(#AI_GaussianBlur_9-2);
      }

      .cls-7 {
        filter: url(#AI_GaussianBlur_9);
      }

      .cls-8 {
        fill: #f7f7f7;
      }
    </style>
    <filter
       id="AI_GaussianBlur_4"
       x="-0.028927862"
       y="-0.028927862"
       width="1.0578557"
       height="1.0578557">
      <feGaussianBlur
         stdDeviation="4"
         id="feGaussianBlur1" />
    </filter>
    <filter
       id="AI_GaussianBlur_7"
       x="-0.052342972"
       y="-0.052342972"
       width="1.1046859"
       height="1.1046859">
      <feGaussianBlur
         stdDeviation="7"
         id="feGaussianBlur2" />
    </filter>
    <filter
       id="AI_GaussianBlur_9"
       x="-0.073175691"
       y="-0.073175691"
       width="1.1463514"
       height="1.1463514">
      <feGaussianBlur
         stdDeviation="9"
         id="feGaussianBlur3" />
    </filter>
    <filter
       id="AI_GaussianBlur_9-2"
       data-name="AI_GaussianBlur_9"
       x="-0.079202112"
       y="-0.079202112"
       width="1.1584042"
       height="1.1584042">
      <feGaussianBlur
         stdDeviation="9"
         id="feGaussianBlur4" />
    </filter>
  </defs>
  <g
     id="Base_Layer"
     data-name="Base Layer"
     transform="translate(-5.1700134,-4.1000061)">
    <circle
       class="cls-2"
       cx="181.85001"
       cy="180.78"
       r="176.67999"
       id="circle4" />
  </g>
  <g
     id="Second_Base"
     data-name="Second Base"
     transform="translate(-5.1700134,-4.1000061)">
    <g
       class="cls-5"
       id="g5">
      <circle
         class="cls-8"
         cx="181.85001"
         cy="180.78"
         r="165.92999"
         id="circle5" />
    </g>
  </g>
  <g
     id="Darker"
     transform="translate(-5.1700134,-4.1000061)">
    <g
       class="cls-1"
       id="g6">
      <circle
         class="cls-4"
         cx="181.85001"
         cy="180.78"
         r="160.48"
         id="circle6" />
    </g>
  </g>
  <g
     id="Lighter"
     transform="translate(-5.1700134,-4.1000061)">
    <g
       class="cls-7"
       id="g7">
      <circle
         class="cls-3"
         cx="181.85001"
         cy="180.78"
         r="147.59"
         id="circle7" />
    </g>
  </g>
  <g
     id="Highlight"
     transform="translate(-5.1700134,-4.1000061)">
    <g
       class="cls-6"
       id="g8">
      <circle
         class="cls-2"
         cx="181.85001"
         cy="180.78"
         r="136.36"
         id="circle8" />
    </g>
  </g>
  <g
     id="Layer_9"
     data-name="Layer 9"
     transform="translate(-5.1700134,-4.1000061)">
    <g
       id="g20">
      <path
         class="cls-4"
         d="M 21.23,239.36 C 44.17,192.24 44.43,138.3 43.19,87.04 43.15,85.47 43.44,77.66 42.6,71.25 c -2.99,3.79 -5.83,7.71 -8.5,11.74 -0.81,24.93 0.61,49.79 -1.24,74.73 -2.14,28.69 -7.06,57.35 -16.96,84.43 0.42,1.13 0.86,2.26 1.3,3.39 1.71,-1.69 2.96,-3.98 4.03,-6.18 z"
         id="path8" />
      <path
         class="cls-4"
         d="m 62.26,50.12 c -2.45,2.24 -4.83,4.54 -7.15,6.91 -1.03,6.03 -1.49,12.89 -1.73,14.87 -3.79,32.15 -5.24,64.41 -10.04,96.49 -4.56,30.49 -11.05,60.78 -20.63,89.59 1.01,2.07 2.07,4.12 3.16,6.14 25.29,-56.58 31.46,-122.44 35.99,-185.3 0.2,-2.81 2.44,-21.14 0.4,-28.7 z"
         id="path9" />
      <path
         class="cls-4"
         d="m 77.99,37.33 c -2.97,2.14 -5.86,4.38 -8.69,6.69 -0.46,4.89 -0.7,9.28 -0.85,10.89 -3.44,37.17 -4.54,74.37 -8.99,111.48 -4.7,39.21 -11.8,78.21 -22.89,115.05 1.02,1.46 2.07,2.91 3.14,4.34 C 67.24,217.8 73.01,138.27 77.02,62.58 77.15,60.11 78.37,47.15 78,37.32 Z"
         id="path10" />
      <path
         class="cls-4"
         d="m 92.34,27.98 c -1.42,0.83 -2.83,1.68 -4.22,2.54 C 87.35,37.3 86.77,44 86.54,46.17 82.15,88 78.89,129.79 74.01,171.59 68.8,216.25 62.43,260.75 54.23,302.88 c 0.6,0.62 1.21,1.24 1.82,1.86 18.06,-76.85 26.63,-165.7 34.07,-250.23 0.23,-2.63 1.62,-15.79 2.23,-26.53 z"
         id="path11" />
      <path
         class="cls-4"
         d="m 22.29,103.7 c -0.76,7.27 -1.56,14.54 -2.41,21.81 -3.44,29.52 -7.4,58.98 -12.05,87.72 0.55,2.93 1.17,5.83 1.87,8.7 7.87,-41.22 13.57,-84.94 18.25,-128.95 -2,3.5 -3.89,7.08 -5.65,10.73 z"
         id="path12" />
      <path
         class="cls-4"
         d="m 101.15,23.16 c -1.44,0.74 -2.88,1.49 -4.3,2.27 -1.1,8.29 -1.95,18.2 -2.24,20.95 -4.5,42.47 -7.74,84.92 -12.79,127.35 -5.48,46.08 -12.33,91.97 -21.33,135.32 0.66,0.62 1.33,1.24 2,1.85 C 82.38,232.52 91.17,141.48 98.73,54.89 99,51.81 100.85,34.52 101.15,23.16 Z"
         id="path13" />
      <path
         class="cls-4"
         d="m 167.24,41.26 c 0.18,-3.58 1.6,-23.15 1.44,-36.82 -1.95,0.14 -3.9,0.3 -5.84,0.5 -1.08,10.12 -1.67,22.57 -1.91,25.97 -3.66,51.12 -5.54,102.25 -9.97,153.32 -4.87,56.17 -11.71,112.09 -21.85,164.77 1.04,0.32 2.09,0.63 3.14,0.94 0.05,-0.18 0.09,-0.37 0.14,-0.55 23.02,-94.14 29.67,-203.8 34.86,-308.12 z"
         id="path14" />
      <path
         class="cls-4"
         d="m 179.95,4.01 c -1.33,0 -2.66,0.03 -3.98,0.07 -0.86,9.32 -1.52,19.06 -1.77,22.06 -4.39,53.34 -7.65,106.64 -12.53,159.93 -5.18,56.59 -11.5,112.96 -19.62,166.38 0.73,0.17 1.47,0.33 2.2,0.48 17.69,-97.33 26.16,-209.44 33.53,-316.17 0.23,-3.26 1.55,-19.28 2.18,-32.76 z"
         id="path15" />
      <path
         class="cls-4"
         d="m 188.56,4.15 c -1.49,-0.06 -2.98,-0.1 -4.48,-0.13 -0.89,9.46 -1.56,19.34 -1.81,22.38 -4.5,54.16 -7.74,108.29 -12.79,162.4 -5.24,56.14 -11.72,112.05 -20.14,165.13 0.87,0.16 1.74,0.31 2.62,0.46 18.61,-97.81 27.1,-210.14 34.42,-317.14 0.23,-3.3 1.57,-19.44 2.18,-33.11 z"
         id="path16" />
      <path
         class="cls-4"
         d="m 155,5.93 c -0.93,0.14 -1.86,0.28 -2.78,0.43 -0.34,4 -0.6,7.2 -0.73,8.71 -4.78,54.13 -8.84,108.18 -13.93,162.29 -5.37,57.13 -11.47,114.09 -18.59,168.16 0.46,0.17 0.92,0.35 1.39,0.52 14.84,-98.91 24.38,-212.35 33.02,-320.33 0.18,-2.25 0.9,-10.46 1.63,-19.78 z"
         id="path17" />
      <path
         class="cls-4"
         d="m 148.4,7.05 c -0.93,0.17 -1.85,0.35 -2.77,0.54 -0.44,5.15 -0.79,9.41 -0.95,11.22 -4.78,54.13 -8.84,108.18 -13.93,162.29 -5.17,54.98 -11.01,109.8 -17.79,162.03 0.49,0.21 0.99,0.41 1.48,0.62 14.33,-97.47 23.66,-208.51 32.12,-314.3 0.2,-2.46 1.04,-12.04 1.83,-22.4 z"
         id="path18" />
      <path
         class="cls-4"
         d="m 295.13,315.08 c 0.75,-0.63 1.49,-1.27 2.22,-1.92 10.16,-75.8 17.67,-158.34 24.35,-239.43 -0.88,-1.16 -1.78,-2.31 -2.69,-3.45 -3.02,36.37 -5.98,72.72 -9.4,109.1 -4.31,45.81 -9.08,91.51 -14.47,135.7 z"
         id="path19" />
      <path
         class="cls-4"
         d="m 303.12,307.89 c 1.48,-1.42 2.94,-2.86 4.37,-4.33 10.79,-69.1 17.5,-143.59 22.95,-217.23 -1.53,-2.42 -3.12,-4.81 -4.76,-7.15 -2.51,34.03 -4.96,68.06 -8.14,102.07 -3.99,42.72 -8.69,85.32 -14.42,126.63 z"
         id="path20" />
    </g>
  </g>
</svg>
