<?xml version="1.0" encoding="UTF-8" standalone="no"?>
<!-- This work (c) 2026 by RMN Creatives LLC is licensed under CC BY 4.0. To view a copy of this license, visit https://creativecommons.org/licenses/by/4.0/ -->
<svg
   viewBox="0 0 353.35999 353.35998"
   version="1.1"
   id="svg15"
   sodipodi:docname="White Stone Finals-07.svg"
   width="353.35999"
   height="353.35999"
   inkscape:version="1.4.2 (ebf0e940d0, 2025-05-08)"
   xmlns:inkscape="http://www.inkscape.org/namespaces/inkscape"
   xmlns:sodipodi="http://sodipodi.sourceforge.net/DTD/sodipodi-0.dtd"
   xmlns="http://www.w3.org/2000/svg"
   xmlns:svg="http://www.w3.org/2000/svg">
  <sodipodi:namedview
     id="namedview15"
     pagecolor="#ffffff"
     bordercolor="#000000"
     borderopacity="0.25"
     inkscape:showpageshadow="2"
     inkscape:pageopacity="0.0"
     inkscape:pagecheckerboard="0"
     inkscape:deskcolor="#d1d1d1"
     inkscape:zoom="2.465069"
     inkscape:cx="175.85715"
     inkscape:cy="178.08832"
     inkscape:window-width="1920"
     inkscape:window-height="1142"
     inkscape:window-x="0"
     inkscape:window-y="26"
     inkscape:window-maximized="1"
     inkscape:current-layer="svg15" />
  <defs
     id="defs4">
    <style
       id="style1">
      .cls-1 {
        filter: url(#AI_GaussianBlur_7);
        opacity: .5;
      }

      .cls-2 {
        fill: #fff;
      }

      .cls-3 {
        fill: #f9f9f9;
      }

      .cls-4 {
        fill: #f2f2f2;
      }

      .cls-5 {
        filter: url(#AI_GaussianBlur_4);
      }

      .cls-6 {
        filter: url(#AI_GaussianBlur_9-2);
      }

      .cls-7 {
        filter: url(#AI_GaussianBlur_9);
      }

      .cls-8 {
        fill: #f7f7f7;
      }
    </style>
    <filter
       id="AI_GaussianBlur_4"
       x="-0.028927862"
       y="-0.028927862"
       width="1.0578557"
       height="1.0578557">
      <feGaussianBlur
         stdDeviation="4"
         id="feGaussianBlur1" />
    </filter>
    <filter
       id="AI_GaussianBlur_7"
       x="-0.052342972"
       y="-0.052342972"
       width="1.1046859"
       height="1.1046859">
      <feGaussianBlur
         stdDeviation="7"
         id="feGaussianBlur2" />
    </filter>
    <filter
       id="AI_GaussianBlur_9"
       x="-0.073175691"
       y="-0.073175691"
       width="1.1463514"
       height="1.1463514">
      <feGaussianBlur
         stdDeviation="9"
         id="feGaussianBlur3" />
    </filter>
    <filter
       id="AI_GaussianBlur_9-2"
       data-name="AI_GaussianBlur_9"
       x="-0.079202112"
       y="-0.079202112"
       width="1.1584042"
       height="1.1584042">
      <feGaussianBlur
         stdDeviation="9"
         id="feGaussianBlur4" />
    </filter>
  </defs>
  <g
     id="Base_Layer"
     data-name="Base Layer"
     transform="translate(-5.1700134,-4.1000061)">
    <circle
       class="cls-2"
       cx="181.85001"
       cy="180.78"
       r="176.67999"
       id="circle4" />
  </g>
  <g
     id="Second_Base"
     data-name="Second Base"
     transform="translate(-5.1700134,-4.1000061)">
    <g
       class="cls-5"
       id="g5">
      <circle
         class="cls-8"
         cx="181.85001"
         cy="180.78"
         r="165.92999"
         id="circle5" />
    </g>
  </g>
  <g
     id="Darker"
     transform="translate(-5.1700134,-4.1000061)">
    <g
       class="cls-1"
       id="g6">
      <circle
         class="cls-4"
         cx="181.85001"
         cy="180.78"
         r="160.48"
         id="circle6" />
    </g>
  </g>
  <g
     id="Lighter"
     transform="translate(-5.1700134,-4.1000061)">
    <g
       class="cls-7"
       id="g7">
      <circle
         class="cls-3"
         cx="181.85001"
         cy="180.78"
         r="147.59"
         id="circle7" />
    </g>
  </g>
  <g
     id="Highlight"
     transform="translate(-5.1700134,-4.1000061)">
    <g
       class="cls-6"
       id="g8">
      <circle
         class="cls-2"
         cx="181.85001"
         cy="180.78"
         r="136.36"
         id="circle8" />
    </g>
  </g>
  <g
     id="Layer_9"
     data-name="Layer 9"
     transform="translate(-5.1700134,-4.1000061)">
    <g
       id="g15">
      <path
         class="cls-4"
         d="m 183.9,14.97 c 0.59,10.46 1.07,20.94 1.43,31.41 0.75,21.7 1,43.41 0.76,65.12 -0.47,42.67 -2.86,85.32 -7.16,127.78 -2.36,23.29 -5.3,46.6 -11.16,69.27 -4.02,15.55 -9.41,30.75 -16.07,45.36 1.53,0.27 3.06,0.53 4.6,0.76 0.02,-0.04 0.04,-0.08 0.06,-0.11 26.2,-56.07 31.59,-119.36 34.63,-181.17 2.59,-52.68 3.75,-105.42 3.5,-158.16 -0.02,-3.41 -0.08,-6.96 -1.52,-10.03 -2.76,-0.15 -5.54,-0.24 -8.33,-0.27 -0.7,3.61 -0.84,8 -0.72,10.03 z"
         id="path8" />
      <path
         class="cls-4"
         d="m 196.6,16.05 c 0.59,10.46 1.07,20.94 1.43,31.41 0.75,21.7 1,43.41 0.76,65.12 -0.47,42.67 -2.86,85.32 -7.16,127.78 -2.36,23.29 -5.3,46.6 -11.16,69.27 -4.08,15.8 -9.58,31.22 -16.39,46.05 1.57,0.17 3.14,0.32 4.72,0.44 0.09,-0.16 0.17,-0.32 0.24,-0.48 26.2,-56.07 31.59,-119.36 34.63,-181.17 2.59,-52.68 3.75,-105.42 3.5,-158.16 -0.02,-3.38 -0.07,-6.9 -1.48,-9.94 -2.74,-0.35 -5.5,-0.64 -8.27,-0.86 -0.79,3.7 -0.95,8.42 -0.83,10.54 z"
         id="path9" />
      <path
         class="cls-4"
         d="m 214.57,90 c -1.63,47.82 -4.84,95.57 -9.62,143.07 -2.62,26.06 -5.72,52.12 -11.2,77.4 -3.43,15.82 -7.79,31.29 -13.01,46.21 0.76,0 1.53,0.01 2.29,0.01 0.61,0 1.23,0 1.84,-0.01 21.66,-61.03 27.72,-129.88 31.91,-197.21 3.1,-49.89 5.36,-99.86 6.79,-149.85 -2.56,-0.6 -5.14,-1.15 -7.74,-1.64 0.01,3 0.01,6 0.01,9.01 -0.02,24.34 -0.44,48.68 -1.27,73.01 z"
         id="path10" />
      <path
         class="cls-4"
         d="m 314.41,240.49 c -2.25,22.39 -4.86,44.78 -9.03,66.68 1.99,-1.93 3.94,-3.9 5.83,-5.92 8.58,-43.6 12.22,-89.32 15.02,-134.35 1.69,-27.27 3.14,-54.56 4.33,-81.87 -1.89,-2.91 -3.87,-5.76 -5.93,-8.55 -0.17,6.98 -0.37,13.97 -0.61,20.95 -1.63,47.82 -4.84,95.57 -9.62,143.07 z"
         id="path11" />
      <path
         class="cls-4"
         d="m 317.74,293.91 c 2.15,-2.56 4.23,-5.18 6.24,-7.86 7.54,-41.24 10.91,-84.21 13.55,-126.58 1.17,-18.9 2.23,-37.82 3.16,-56.74 -1.71,-3.45 -3.54,-6.84 -5.47,-10.16 -1.66,46.96 -4.84,93.85 -9.52,140.5 -2.05,20.4 -4.4,40.81 -7.96,60.84 z"
         id="path12" />
      <path
         class="cls-4"
         d="m 260.58,227.22 c -2.62,26.06 -5.72,52.12 -11.2,77.4 -3.23,14.88 -7.27,29.45 -12.09,43.55 1.58,-0.51 3.14,-1.04 4.7,-1.6 20.46,-59.97 26.34,-127.18 30.42,-192.95 2.5,-40.19 4.45,-80.44 5.86,-120.7 -2.26,-1.46 -4.56,-2.87 -6.89,-4.22 -0.16,18.49 -0.56,36.97 -1.19,55.45 -1.63,47.82 -4.84,95.57 -9.62,143.07 z"
         id="path13" />
      <path
         class="cls-4"
         d="m 270.92,232.87 c -2.44,26.03 -5.2,52.07 -9.46,77.31 -1.77,10.51 -3.81,20.86 -6.08,30.99 1.01,-0.46 2.01,-0.92 3.01,-1.4 12.76,-56.68 18.04,-119.17 22.28,-180.42 2.76,-39.88 5.17,-79.8 7.25,-119.75 -1.42,-1.06 -2.86,-2.1 -4.32,-3.11 -0.63,17.81 -1.4,35.63 -2.32,53.43 -2.45,47.78 -5.91,95.5 -10.36,142.95 z"
         id="path14" />
      <path
         class="cls-4"
         d="m 256.28,99.53 c -2.45,47.78 -5.91,95.5 -10.36,142.95 -2.44,26.03 -5.2,52.07 -9.46,77.31 -1.74,10.31 -3.73,20.47 -5.95,30.42 0.97,-0.27 1.93,-0.55 2.89,-0.83 12.76,-56.67 18.04,-119.17 22.28,-180.41 3.32,-48.03 6.14,-96.13 8.48,-144.27 -1.58,-0.82 -3.18,-1.63 -4.79,-2.4 -0.04,1.42 -0.08,2.85 -0.12,4.27 -0.72,24.32 -1.71,48.65 -2.95,72.96 z"
         id="path15" />
    </g>
  </g>
</svg>
