<?xml version="1.0" encoding="UTF-8" standalone="no"?>
<!-- This work (c) 2026 by RMN Creatives LLC is licensed under CC BY 4.0. To view a copy of this license, visit https://creativecommons.org/licenses/by/4.0/ -->
<svg
   viewBox="0 0 353.35999 353.35998"
   version="1.1"
   id="svg15"
   sodipodi:docname="White Stone Finals-15.svg"
   width="353.35999"
   height="353.35999"
   inkscape:version="1.4.2 (ebf0e940d0, 2025-05-08)"
   xmlns:inkscape="http://www.inkscape.org/namespaces/inkscape"
   xmlns:sodipodi="http://sodipodi.sourceforge.net/DTD/sodipodi-0.dtd"
   xmlns="http://www.w3.org/2000/svg"
   xmlns:svg="http://www.w3.org/2000/svg">
  <sodipodi:namedview
     id="namedview15"
     pagecolor="#ffffff"
     bordercolor="#000000"
     borderopacity="0.25"
     inkscape:showpageshadow="2"
     inkscape:pageopacity="0.0"
     inkscape:pagecheckerboard="0"
     inkscape:deskcolor="#d1d1d1"
     inkscape:zoom="2.465069"
     inkscape:cx="175.85715"
     inkscape:cy="178.08832"
     inkscape:window-width="1920"
     inkscape:window-height="1142"
     inkscape:window-x="0"
     inkscape:window-y="26"
     inkscape:window-maximized="1"
     inkscape:current-layer="svg15" />
  <defs
     id="defs4">
    <style
       id="style1">
      .cls-1 {
        filter: url(#AI_GaussianBlur_7);
        opacity: .5;
      }

      .cls-2 {
        fill: #fff;
      }

      .cls-3 {
        fill: #f9f9f9;
      }

      .cls-4 {
        fill: #f2f2f2;
      }

      .cls-5 {
        filter: url(#AI_GaussianBlur_4);
      }

      .cls-6 {
        filter: url(#AI_GaussianBlur_9-2);
      }

      .cls-7 {
        filter: url(#AI_GaussianBlur_9);
      }

      .cls-8 {
        fill: #f7f7f7;
      }
    </style>
    <filter
       id="AI_GaussianBlur_4"
       x="-0.028927862"
       y="-0.028927862"
       width="1.0578557"
       height="1.0578557">
      <feGaussianBlur
         stdDeviation="4"
         id="feGaussianBlur1" />
    </filter>
    <filter
       id="AI_GaussianBlur_7"
       x="-0.052342972"
       y="-0.052342972"
       width="1.1046859"
       height="1.1046859">
      <feGaussianBlur
         stdDeviation="7"
         id="feGaussianBlur2" />
    </filter>
    <filter
       id="AI_GaussianBlur_9"
       x="-0.073175691"
       y="-0.073175691"
       width="1.1463514"
       height="1.1463514">
      <feGaussianBlur
         stdDeviation="9"
         id="feGaussianBlur3" />
    </filter>
    <filter
       id="AI_GaussianBlur_9-2"
       data-name="AI_GaussianBlur_9"
       x="-0.079202112"
       y="-0.079202112"
       width="1.1584042"
       height="1.1584042">
      <feGaussianBlur
         stdDeviation="9"
         id="feGaussianBlur4" />
    </filter>
  </defs>
  <g
     id="Base_Layer"
     data-name="Base Layer"
     transform="translate(-5.1700134,-4.1000061)">
    <circle
       class="cls-2"
       cx="181.85001"
       cy="180.78"
       r="176.67999"
       id="circle4" />
  </g>
  <g
     id="Second_Base"
     data-name="Second Base"
     transform="translate(-5.1700134,-4.1000061)">
    <g
       class="cls-5"
       id="g5">
      <circle
         class="cls-8"
         cx="181.85001"
         cy="180.78"
         r="165.92999"
         id="circle5" />
    </g>
  </g>
  <g
     id="Darker"
     transform="translate(-5.1700134,-4.1000061)">
    <g
       class="cls-1"
       id="g6">
      <circle
         class="cls-4"
         cx="181.85001"
         cy="180.78"
         r="160.48"
         id="circle6" />
    </g>
  </g>
  <g
     id="Lighter"
     transform="translate(-5.1700134,-4.1000061)">
    <g
       class="cls-7"
       id="g7">
      <circle
         class="cls-3"
         cx="181.85001"
         cy="180.78"
         r="147.59"
         id="circle7" />
    </g>
  </g>
  <g
     id="Highlight"
     transform="translate(-5.1700134,-4.1000061)">
    <g
       class="cls-6"
       id="g8">
      <circle
         class="cls-2"
         cx="181.85001"
         cy="180.78"
         r="136.36"
         id="circle8" />
    </g>
  </g>
  <g
     id="Layer_9"
     data-name="Layer 9"
     transform="translate(-5.1700134,-4.1000061)">
    <g
       id="g15">
      <path
         class="cls-4"
         d="m 37.4,92.85 c -0.55,-3.57 -1.3,-7.47 -3.13,-10.4 -2.61,3.92 -5.06,7.95 -7.36,12.08 4.93,8.72 7.32,19.07 8.14,29.28 1.06,13.28 -0.28,26.63 -0.55,39.96 -0.35,17.05 1.04,34.17 -0.7,51.12 -1.41,13.79 -5.18,27.8 -12.77,38.96 1.74,3.77 3.62,7.47 5.61,11.09 1.74,-2.12 3.17,-4.7 4.29,-7.16 22.8,-50.5 14.96,-109.72 6.47,-164.92 z"
         id="path8" />
      <path
         class="cls-4"
         d="m 12.67,209.53 c 4.72,-15.45 9.48,-31.05 10.85,-47.25 0.5,-5.85 0.54,-11.72 0.56,-17.59 0.02,-5.85 0,-11.7 0,-17.56 0,-3.45 -0.01,-6.93 -0.72,-10.29 -0.28,-1.34 -1.76,-6.07 -3.43,-8.31 -1.04,2.34 -2.03,4.71 -2.97,7.1 0.14,0.73 0.27,1.43 0.34,2.05 0.39,3.53 0.66,7.08 0.84,10.63 0.68,13.87 -0.13,27.77 -1.58,41.55 -1.18,11.15 -2.78,22.32 -6.03,32.98 -0.81,2.66 -1.76,5.34 -3.01,7.79 0.47,2.66 0.99,5.29 1.58,7.9 0.89,-1.35 1.57,-2.93 2.11,-4.46 0.53,-1.5 1,-3.03 1.46,-4.56 z"
         id="path9" />
      <path
         class="cls-4"
         d="m 11.66,144.4 c -0.24,-2.8 -0.64,-5.59 -1.3,-8.33 -0.77,2.99 -1.45,6.01 -2.07,9.06 0.33,2.42 0.57,4.85 0.71,7.28 0.36,5.95 0.16,12.01 -1.59,17.71 -0.66,2.13 -1.53,4.18 -2.53,6.18 -0.03,1.22 -0.04,2.45 -0.04,3.68 0,1.23 0.02,2.56 0.04,3.84 0.37,-0.69 0.69,-1.41 0.98,-2.11 4.87,-11.74 6.87,-24.65 5.78,-37.31 z"
         id="path10" />
      <path
         class="cls-4"
         d="m 66.68,305.55 c 3.09,-6.18 5.67,-12.59 8.13,-19.04 7.72,-20.25 14.27,-40.96 19.58,-61.97 5.24,-20.72 8.42,-41.96 9.49,-63.3 0.47,-9.53 0.53,-19.1 -0.39,-28.6 -3.05,-31.53 -17.21,-61.87 -39.34,-84.52 -3.56,3.16 -7,6.47 -10.29,9.91 7.65,5.26 13.81,12.74 18.2,20.99 5.75,10.8 8.7,22.87 10.58,34.95 7.91,50.95 -2.45,102.88 -15.28,152.81 -0.93,3.61 -1.87,7.23 -3.25,10.69 -2.14,5.37 -5.51,10.49 -10.51,13.4 -2.3,1.34 -4.89,2.13 -7.53,2.37 5.16,6.15 10.73,11.94 16.67,17.33 0.22,-0.13 0.43,-0.27 0.64,-0.42 1.52,-1.15 2.46,-2.89 3.31,-4.59 z"
         id="path11" />
      <path
         class="cls-4"
         d="m 166.33,153.43 c -0.03,-13.67 -0.99,-27.32 -2.18,-40.94 -2.54,-29.09 -6.26,-58.59 -18.03,-85.31 -2.81,-6.37 -6.54,-12.95 -11.85,-17.17 -2.49,0.69 -4.96,1.42 -7.41,2.21 16.9,27.71 25.63,59.91 28.75,92.24 3.21,33.13 0.75,66.55 -3.2,99.6 -3.04,25.45 -7,50.89 -14.46,75.41 -6.61,21.75 -16.08,42.83 -29.43,61.18 2.9,1.31 5.85,2.55 8.84,3.71 1.42,-2.03 2.48,-4.37 3.48,-6.65 25.6,-58.37 45.63,-120.54 45.48,-184.28 z"
         id="path12" />
      <path
         class="cls-4"
         d="m 179.61,108.22 c -1.75,-31.39 -14.95,-70.7 -23.05,-99.54 -0.29,-1.04 -0.6,-2.09 -0.93,-3.14 -2.26,0.33 -4.5,0.7 -6.73,1.11 11.01,28.36 23,63.17 24.84,92.9 2.21,35.74 0.52,71.81 -2.2,107.46 -2.09,27.46 -13.36,57.6 -18.49,84.06 -4.04,20.85 -9.63,41.13 -17.27,59.28 2.01,0.53 4.04,1.03 6.08,1.5 17.53,-62.44 39.37,-131.43 39.26,-199.45 -0.02,-14.75 -0.68,-29.48 -1.5,-44.17 z"
         id="path13" />
      <path
         class="cls-4"
         d="m 303.3,79.84 c 0.78,14.63 1.27,29.27 1.7,43.91 0.57,19.44 1.01,38.89 0.62,58.34 -0.45,22.39 -2,44.76 -4.64,67 -3.11,26.13 -9.85,51.82 -19.96,76.12 1.41,-0.97 2.8,-1.96 4.18,-2.97 1.6,-2.49 3.18,-5 4.73,-7.52 1.58,-2.57 3.16,-5.21 3.78,-8.16 12.83,-60.57 25.73,-122.35 19.26,-183.92 -1.33,-12.66 -3.48,-25.23 -4.2,-37.94 -0.52,-9.26 -0.29,-18.61 -1.46,-27.79 -1.88,-1.93 -3.8,-3.81 -5.76,-5.64 -0.95,9.32 1.29,19.79 1.75,28.57 z"
         id="path14" />
      <path
         class="cls-4"
         d="m 316.45,91.43 c 0.08,11.28 0.38,22.56 0.72,33.84 0.69,22.56 1.59,45.12 1.48,67.7 -0.19,38.54 -3.48,77.62 -15.45,114.13 1.9,-1.82 3.76,-3.69 5.58,-5.6 0.49,-2.1 0.9,-4.2 1.28,-6.27 5.96,-32.12 11.95,-64.49 11.38,-97.15 -0.74,-42.55 -1.48,-85.1 -2.22,-127.65 -0.62,-0.78 -1.25,-1.56 -1.88,-2.33 0.89,7.43 -0.93,18.42 -0.89,23.32 z"
         id="path15" />
    </g>
  </g>
</svg>
