<?xml version="1.0" encoding="UTF-8" standalone="no"?>
<!-- This work (c) 2025 by RMN Creatives LLC is licensed under CC BY 4.0. To view a copy of this license, visit https://creativecommons.org/licenses/by/4.0/ -->
<svg
   viewBox="0 0 353.35999 353.35998"
   version="1.1"
   id="svg15"
   sodipodi:docname="White Stone Finals-11.svg"
   width="353.35999"
   height="353.35999"
   inkscape:version="1.4.2 (ebf0e940d0, 2025-05-08)"
   xmlns:inkscape="http://www.inkscape.org/namespaces/inkscape"
   xmlns:sodipodi="http://sodipodi.sourceforge.net/DTD/sodipodi-0.dtd"
   xmlns="http://www.w3.org/2000/svg"
   xmlns:svg="http://www.w3.org/2000/svg">
  <sodipodi:namedview
     id="namedview15"
     pagecolor="#ffffff"
     bordercolor="#000000"
     borderopacity="0.25"
     inkscape:showpageshadow="2"
     inkscape:pageopacity="0.0"
     inkscape:pagecheckerboard="0"
     inkscape:deskcolor="#d1d1d1"
     inkscape:zoom="2.465069"
     inkscape:cx="175.85715"
     inkscape:cy="178.08832"
     inkscape:window-width="1920"
     inkscape:window-height="1142"
     inkscape:window-x="0"
     inkscape:window-y="26"
     inkscape:window-maximized="1"
     inkscape:current-layer="svg15" />
  <defs
     id="defs4">
    <style
       id="style1">
      .cls-1 {
        filter: url(#AI_GaussianBlur_7);
        opacity: .5;
      }

      .cls-2 {
        fill: #fff;
      }

      .cls-3 {
        fill: #f9f9f9;
      }

      .cls-4 {
        fill: #f2f2f2;
      }

      .cls-5 {
        filter: url(#AI_GaussianBlur_4);
      }

      .cls-6 {
        filter: url(#AI_GaussianBlur_9-2);
      }

      .cls-7 {
        filter: url(#AI_GaussianBlur_9);
      }

      .cls-8 {
        fill: #f7f7f7;
      }
    </style>
    <filter
       id="AI_GaussianBlur_4"
       x="-0.028927862"
       y="-0.028927862"
       width="1.0578557"
       height="1.0578557">
      <feGaussianBlur
         stdDeviation="4"
         id="feGaussianBlur1" />
    </filter>
    <filter
       id="AI_GaussianBlur_7"
       x="-0.052342972"
       y="-0.052342972"
       width="1.1046859"
       height="1.1046859">
      <feGaussianBlur
         stdDeviation="7"
         id="feGaussianBlur2" />
    </filter>
    <filter
       id="AI_GaussianBlur_9"
       x="-0.073175691"
       y="-0.073175691"
       width="1.1463514"
       height="1.1463514">
      <feGaussianBlur
         stdDeviation="9"
         id="feGaussianBlur3" />
    </filter>
    <filter
       id="AI_GaussianBlur_9-2"
       data-name="AI_GaussianBlur_9"
       x="-0.079202112"
       y="-0.079202112"
       width="1.1584042"
       height="1.1584042">
      <feGaussianBlur
         stdDeviation="9"
         id="feGaussianBlur4" />
    </filter>
  </defs>
  <g
     id="Base_Layer"
     data-name="Base Layer"
     transform="translate(-5.1700134,-4.1000061)">
    <circle
       class="cls-2"
       cx="181.85001"
       cy="180.78"
       r="176.67999"
       id="circle4" />
  </g>
  <g
     id="Second_Base"
     data-name="Second Base"
     transform="translate(-5.1700134,-4.1000061)">
    <g
       class="cls-5"
       id="g5">
      <circle
         class="cls-8"
         cx="181.85001"
         cy="180.78"
         r="165.92999"
         id="circle5" />
    </g>
  </g>
  <g
     id="Darker"
     transform="translate(-5.1700134,-4.1000061)">
    <g
       class="cls-1"
       id="g6">
      <circle
         class="cls-4"
         cx="181.85001"
         cy="180.78"
         r="160.48"
         id="circle6" />
    </g>
  </g>
  <g
     id="Lighter"
     transform="translate(-5.1700134,-4.1000061)">
    <g
       class="cls-7"
       id="g7">
      <circle
         class="cls-3"
         cx="181.85001"
         cy="180.78"
         r="147.59"
         id="circle7" />
    </g>
  </g>
  <g
     id="Highlight"
     transform="translate(-5.1700134,-4.1000061)">
    <g
       class="cls-6"
       id="g8">
      <circle
         class="cls-2"
         cx="181.85001"
         cy="180.78"
         r="136.36"
         id="circle8" />
    </g>
  </g>
  <g
     id="Layer_9"
     data-name="Layer 9"
     transform="translate(-5.1700134,-4.1000061)">
    <g
       id="g15">
      <path
         class="cls-4"
         d="m 300.16,117.86 c 2.65,-13.12 5.84,-26.27 11.78,-38.27 1.68,-3.39 3.84,-6.92 5.8,-10.56 -2.13,-2.63 -4.33,-5.19 -6.6,-7.69 -3.8,5.57 -6.67,12.64 -8.58,16.55 -5.49,11.24 -9.53,23.15 -12.51,35.28 -6.07,24.75 -7.74,50.4 -7.91,75.81 -0.21,30.64 1.44,61.29 4.93,91.73 1.3,11.32 2.94,22.84 6.89,33.45 1.68,-1.41 3.34,-2.85 4.97,-4.32 C 286.35,246.67 287.42,181 300.17,117.86 Z"
         id="path8" />
      <path
         class="cls-4"
         d="m 308.44,276.75 c 0.47,6.47 1.29,13.44 4.55,18.84 1.03,-1.17 2.05,-2.36 3.06,-3.56 -0.35,-9.64 -0.35,-19.29 0,-28.92 0.5,-13.38 1.68,-26.73 2.87,-40.07 2.09,-23.56 4.18,-47.13 6.27,-70.69 1.11,-12.51 2.22,-25.02 4,-37.45 1.09,-7.65 2.45,-15.27 4.41,-22.74 -2.47,-4.29 -5.11,-8.47 -7.92,-12.53 -11.11,30.98 -18.77,135.31 -18.85,148.78 -0.1,16.13 0.43,32.25 1.6,48.34 z"
         id="path9" />
      <path
         class="cls-4"
         d="m 335.6,213.16 c -0.25,15.28 -0.35,30.81 2.27,45.8 2.83,-5.56 5.37,-11.29 7.6,-17.17 -0.04,-1.01 -0.09,-2.01 -0.13,-3.01 -1.55,-35.25 0.15,-70.64 5.07,-105.58 0.02,-0.16 0.05,-0.37 0.09,-0.6 -1.81,-6.53 -3.98,-12.9 -6.49,-19.1 -2.48,8.6 -3.51,23.35 -4,26.98 -3.31,24.08 -4,48.42 -4.4,72.69 z"
         id="path10" />
      <path
         class="cls-4"
         d="m 241.93,244.31 c -1.41,-16.77 -2.75,-33.65 -1,-50.39 1.19,-11.39 3.8,-22.58 6.53,-33.7 8.71,-35.49 18.71,-70.67 29.98,-105.43 1.62,-5.01 4.89,-11.45 6.84,-17.49 -3.8,-2.75 -7.71,-5.36 -11.72,-7.81 -8.9,13.98 -13.71,32.36 -18.39,48.04 -5.68,19.04 -10.06,38.44 -14.1,57.88 -5.93,28.52 -11.19,57.29 -12.48,86.39 -1.29,29.1 1.48,58.67 11.24,86.11 3.93,11.04 9.4,22.13 17.47,30.39 4.59,-2.17 9.07,-4.54 13.43,-7.09 -1.75,-3.64 -4.43,-6.83 -6.82,-10.13 -15.73,-21.79 -18.71,-50 -20.97,-76.78 z"
         id="path11" />
      <path
         class="cls-4"
         d="m 193.71,277.44 c -7.51,-38 -2.45,-77.25 3.52,-115.52 7.37,-47.23 16.33,-95 37.79,-137.72 1.32,-2.63 2.75,-6.97 2.98,-10.92 -5.01,-1.71 -10.12,-3.2 -15.31,-4.46 -3.98,4.6 -6.5,11.8 -8.58,16.12 -8.82,18.32 -16.04,37.39 -21.77,56.89 -11.55,39.27 -17.1,80.18 -18.1,121.06 -0.56,23.02 0.32,46.07 2.45,68.99 2.7,29.15 8.48,60.37 27.85,81.69 5.24,-0.69 10.4,-1.62 15.48,-2.76 -0.38,-1.04 -0.84,-2.05 -1.29,-3.05 -10.28,-22.72 -20.18,-45.85 -25.01,-70.31 z"
         id="path12" />
      <path
         class="cls-4"
         d="m 126.45,275.31 c -6.18,-38.96 -2.01,-79.21 2.9,-118.45 6.06,-48.43 13.43,-97.41 31.08,-141.21 1.05,-2.61 2.19,-6.85 2.43,-10.78 -5.53,0.57 -10.97,1.41 -16.34,2.48 -1.3,3.29 -2.35,6.62 -3.29,9.06 -7.25,18.78 -13.19,38.34 -17.91,58.33 -9.5,40.27 -14.06,82.21 -14.88,124.13 -0.46,23.6 0.26,47.23 2.01,70.74 2.05,27.55 6.25,56.9 19.37,78.45 5.45,1.6 11.01,2.93 16.66,4 -0.35,-1.59 -0.91,-3.14 -1.46,-4.66 -8.46,-23.29 -16.6,-47.01 -20.58,-72.09 z"
         id="path13" />
      <path
         class="cls-4"
         d="m 75.34,154.84 c 3.47,-43.07 7.61,-86.57 16.46,-126.48 -4.32,2.56 -8.51,5.3 -12.58,8.21 -2.46,11.84 -4.61,23.92 -6.47,36.16 -6.11,40.27 -9.05,82.21 -9.57,124.13 -0.3,23.6 0.17,47.23 1.29,70.74 0.75,15.62 1.94,31.81 4.37,46.83 4.21,3.51 8.58,6.83 13.11,9.94 -3.57,-16.57 -6.69,-33.48 -8.48,-51.07 -3.97,-38.96 -1.3,-79.21 1.86,-118.45 z"
         id="path14" />
      <path
         class="cls-4"
         d="m 35.99,139.33 c 1.82,-22.6 3.82,-45.33 6.6,-67.58 -5,6.42 -9.56,13.2 -13.65,20.29 -3.12,29.37 -4.73,59.34 -5.11,89.3 -0.3,23.6 0.17,47.23 1.29,70.74 0.14,2.92 0.3,5.85 0.47,8.8 3.43,6.54 7.26,12.85 11.45,18.87 -1.16,-7.22 -2.16,-14.53 -2.92,-21.97 -3.97,-38.96 -1.3,-79.21 1.86,-118.45 z"
         id="path15" />
    </g>
  </g>
</svg>
