<?xml version="1.0" encoding="UTF-8" standalone="no"?>
<svg
   viewBox="0 0 353.35999 353.35998"
   version="1.1"
   id="svg39"
   sodipodi:docname="White Stone Finals-12.svg"
   width="353.35999"
   height="353.35999"
   inkscape:version="1.4.2 (ebf0e940d0, 2025-05-08)"
   xmlns:inkscape="http://www.inkscape.org/namespaces/inkscape"
   xmlns:sodipodi="http://sodipodi.sourceforge.net/DTD/sodipodi-0.dtd"
   xmlns="http://www.w3.org/2000/svg"
   xmlns:svg="http://www.w3.org/2000/svg">
  <sodipodi:namedview
     id="namedview39"
     pagecolor="#ffffff"
     bordercolor="#000000"
     borderopacity="0.25"
     inkscape:showpageshadow="2"
     inkscape:pageopacity="0.0"
     inkscape:pagecheckerboard="0"
     inkscape:deskcolor="#d1d1d1"
     inkscape:zoom="2.465069"
     inkscape:cx="175.85715"
     inkscape:cy="178.08832"
     inkscape:window-width="1920"
     inkscape:window-height="1142"
     inkscape:window-x="0"
     inkscape:window-y="26"
     inkscape:window-maximized="1"
     inkscape:current-layer="svg39" />
  <defs
     id="defs4">
    <style
       id="style1">
      .cls-1 {
        filter: url(#AI_GaussianBlur_7);
        opacity: .5;
      }

      .cls-2 {
        fill: #fff;
      }

      .cls-3 {
        fill: #f9f9f9;
      }

      .cls-4 {
        fill: #f2f2f2;
      }

      .cls-5 {
        filter: url(#AI_GaussianBlur_4);
      }

      .cls-6 {
        filter: url(#AI_GaussianBlur_9-2);
      }

      .cls-7 {
        filter: url(#AI_GaussianBlur_9);
      }

      .cls-8 {
        fill: #f7f7f7;
      }
    </style>
    <filter
       id="AI_GaussianBlur_4"
       x="-0.028927862"
       y="-0.028927862"
       width="1.0578557"
       height="1.0578557">
      <feGaussianBlur
         stdDeviation="4"
         id="feGaussianBlur1" />
    </filter>
    <filter
       id="AI_GaussianBlur_7"
       x="-0.052342972"
       y="-0.052342972"
       width="1.1046859"
       height="1.1046859">
      <feGaussianBlur
         stdDeviation="7"
         id="feGaussianBlur2" />
    </filter>
    <filter
       id="AI_GaussianBlur_9"
       x="-0.073175691"
       y="-0.073175691"
       width="1.1463514"
       height="1.1463514">
      <feGaussianBlur
         stdDeviation="9"
         id="feGaussianBlur3" />
    </filter>
    <filter
       id="AI_GaussianBlur_9-2"
       data-name="AI_GaussianBlur_9"
       x="-0.079202112"
       y="-0.079202112"
       width="1.1584042"
       height="1.1584042">
      <feGaussianBlur
         stdDeviation="9"
         id="feGaussianBlur4" />
    </filter>
  </defs>
  <g
     id="Base_Layer"
     data-name="Base Layer"
     transform="translate(-5.1700134,-4.1000061)">
    <circle
       class="cls-2"
       cx="181.85001"
       cy="180.78"
       r="176.67999"
       id="circle4" />
  </g>
  <g
     id="Second_Base"
     data-name="Second Base"
     transform="translate(-5.1700134,-4.1000061)">
    <g
       class="cls-5"
       id="g5">
      <circle
         class="cls-8"
         cx="181.85001"
         cy="180.78"
         r="165.92999"
         id="circle5" />
    </g>
  </g>
  <g
     id="Darker"
     transform="translate(-5.1700134,-4.1000061)">
    <g
       class="cls-1"
       id="g6">
      <circle
         class="cls-4"
         cx="181.85001"
         cy="180.78"
         r="160.48"
         id="circle6" />
    </g>
  </g>
  <g
     id="Lighter"
     transform="translate(-5.1700134,-4.1000061)">
    <g
       class="cls-7"
       id="g7">
      <circle
         class="cls-3"
         cx="181.85001"
         cy="180.78"
         r="147.59"
         id="circle7" />
    </g>
  </g>
  <g
     id="Highlight"
     transform="translate(-5.1700134,-4.1000061)">
    <g
       class="cls-6"
       id="g8">
      <circle
         class="cls-2"
         cx="181.85001"
         cy="180.78"
         r="136.36"
         id="circle8" />
    </g>
  </g>
  <g
     id="Layer_9"
     data-name="Layer 9"
     transform="translate(-5.1700134,-4.1000061)">
    <g
       id="g39">
      <path
         class="cls-4"
         d="m 195.13,120.62 c -0.68,-14.3 -1.8,-28.52 -2.96,-42.72 -2,-24.6 -4.1,-49.17 -6.27,-73.72 -1.28,-0.03 -2.56,-0.04 -3.85,-0.04 -1.99,0 -3.98,0.04 -5.96,0.1 12.77,116.36 11.42,237.56 -4.2,352.84 3.36,0.19 6.75,0.29 10.16,0.29 0.59,0 1.18,0 1.77,-0.01 4.96,-78.91 15.05,-157.66 11.31,-236.74 z"
         id="path8" />
      <path
         class="cls-4"
         d="m 178.9,127.56 c -0.68,-14.3 -1.8,-28.52 -2.96,-42.72 -2.18,-26.77 -4.48,-53.51 -6.85,-80.24 -3.31,0.24 -6.59,0.57 -9.85,0.99 13.11,115.23 12.33,235.38 -2.46,349.98 3.73,0.53 7.5,0.95 11.3,1.25 5.1,-76.41 14.44,-152.68 10.82,-229.26 z"
         id="path9" />
      <path
         class="cls-4"
         d="m 158.71,130.74 c -0.24,-14.3 -0.65,-28.52 -1.07,-42.72 -0.81,-27.31 -1.65,-54.59 -2.53,-81.85 -1.2,0.18 -2.4,0.38 -3.6,0.59 4.77,114.46 4.59,233.84 -0.61,347.86 1.33,0.24 2.67,0.46 4.02,0.67 1.87,-74.83 5.08,-149.54 3.8,-224.55 z"
         id="path10" />
      <path
         class="cls-4"
         d="M 149.19,134.4 C 148.7,120.1 147.88,105.88 147.04,91.68 145.4,64 143.68,36.34 141.9,8.71 c -2.39,0.56 -4.77,1.16 -7.12,1.81 9.34,111.93 9.18,228.56 -0.58,340.28 2.54,0.71 5.1,1.37 7.68,1.97 3.77,-72.77 9.79,-145.44 7.29,-218.38 z"
         id="path11" />
      <path
         class="cls-4"
         d="m 134.46,139.47 c -0.24,-14.3 -0.65,-28.52 -1.06,-42.72 -0.83,-28.38 -1.71,-56.73 -2.62,-85.06 -1.2,0.36 -2.4,0.74 -3.59,1.13 4.65,110.39 4.72,225.44 0.14,335.91 1.23,0.4 2.47,0.79 3.72,1.16 1.88,-70.11 4.61,-140.13 3.41,-210.42 z"
         id="path12" />
      <path
         class="cls-4"
         d="m 125.44,139.47 c -0.24,-14.3 -0.65,-28.52 -1.06,-42.72 -0.8,-27.39 -1.65,-54.75 -2.52,-82.09 -1.19,0.43 -2.37,0.87 -3.55,1.33 4.48,108.37 4.53,221.13 0.13,329.58 1.22,0.47 2.44,0.93 3.67,1.37 1.87,-69.12 4.51,-138.17 3.33,-207.47 z"
         id="path13" />
      <path
         class="cls-4"
         d="m 118.51,139.47 c -0.24,-14.3 -0.65,-28.52 -1.06,-42.72 -0.78,-26.51 -1.59,-52.99 -2.44,-79.45 -1.18,0.48 -2.35,0.98 -3.51,1.49 4.32,106.58 4.37,217.33 0.12,323.98 1.2,0.52 2.42,1.04 3.63,1.53 1.87,-68.24 4.42,-136.41 3.26,-204.83 z"
         id="path14" />
      <path
         class="cls-4"
         d="m 109.35,149.68 c -0.53,-14.3 -1.41,-28.52 -2.32,-42.72 -1.78,-27.83 -3.66,-55.63 -5.59,-83.4 -2.54,1.31 -5.04,2.67 -7.51,4.09 9.01,100.99 9.67,205.76 1.88,307.26 2.43,1.36 4.9,2.67 7.4,3.92 3.92,-63.01 8.5,-125.97 6.15,-189.15 z"
         id="path15" />
      <path
         class="cls-4"
         d="m 93.72,166.92 c -0.24,-14.3 -0.65,-28.52 -1.06,-42.72 -0.92,-31.39 -1.9,-62.74 -2.9,-94.06 -1.22,0.75 -2.43,1.51 -3.63,2.29 4.31,97.64 5.02,199.11 2.09,297.98 1.11,0.7 2.24,1.39 3.37,2.06 1.59,-55.13 3.08,-110.26 2.14,-165.55 z"
         id="path16" />
      <path
         class="cls-4"
         d="m 87.89,148.14 c -0.24,-14.3 -0.65,-28.52 -1.06,-42.72 -0.7,-24.02 -1.44,-48.03 -2.2,-72.01 -1.15,0.76 -2.3,1.54 -3.43,2.33 3.67,95.65 3.93,194.46 0.73,290.52 1.12,0.77 2.26,1.54 3.4,2.29 1.73,-60.09 3.59,-120.15 2.57,-180.41 z"
         id="path17" />
      <path
         class="cls-4"
         d="M 75.94,175.1 C 75.7,160.8 75.29,146.58 74.88,132.38 74,102.4 73.07,72.45 72.11,42.52 c -1.2,0.96 -2.39,1.93 -3.56,2.91 3.84,89.41 4.66,181.93 2.44,272.65 1.12,0.9 2.24,1.79 3.38,2.67 1.35,-48.5 2.4,-97.02 1.57,-145.66 z"
         id="path18" />
      <path
         class="cls-4"
         d="M 66.41,153.47 C 66.29,139.17 66.09,124.95 65.88,110.75 65.58,90 65.26,69.27 64.93,48.55 c -0.57,0.5 -1.13,1.01 -1.7,1.52 1.56,86.29 1.73,175 0.5,261.8 0.56,0.51 1.13,1.01 1.69,1.51 0.76,-53.25 1.44,-106.51 0.99,-159.91 z"
         id="path19" />
      <path
         class="cls-4"
         d="M 61.32,150.76 C 61.2,136.46 61,122.24 60.79,108.04 60.52,89.72 60.24,71.42 59.96,53.13 c -0.56,0.54 -1.13,1.09 -1.68,1.63 1.42,83.28 1.56,168.7 0.4,252.37 0.56,0.55 1.12,1.09 1.69,1.63 0.75,-52.62 1.41,-105.23 0.96,-158 z"
         id="path20" />
      <path
         class="cls-4"
         d="M 48.46,145.85 C 48.34,131.55 48.14,117.33 47.93,103.13 47.75,90.91 47.56,78.7 47.38,66.48 c -0.56,0.66 -1.12,1.32 -1.66,1.99 1.1,74.39 1.17,150.24 0.22,224.82 0.56,0.68 1.12,1.35 1.69,2.01 0.7,-49.77 1.27,-99.55 0.84,-149.46 z"
         id="path21" />
      <path
         class="cls-4"
         d="m 43.62,150.76 c -0.24,-14.3 -0.65,-28.52 -1.06,-42.72 -0.34,-11.44 -0.68,-22.87 -1.03,-34.3 -1.11,1.46 -2.2,2.94 -3.27,4.43 1.93,68.2 2.14,137.57 0.63,206.03 1.1,1.52 2.22,3.02 3.37,4.5 1.24,-45.93 2.15,-91.89 1.36,-137.95 z"
         id="path22" />
      <path
         class="cls-4"
         d="m 27.74,141.22 c -0.78,-13.7 -1.85,-27.32 -2.96,-40.93 -2.32,4.53 -4.45,9.16 -6.38,13.9 2.65,46.63 3.7,93.63 3.14,140.34 2.11,4.58 4.41,9.05 6.88,13.41 1.24,-42.23 1.71,-84.46 -0.68,-126.72 z"
         id="path23" />
      <path
         class="cls-4"
         d="m 17.8,145.85 c -0.16,-9.51 -0.4,-18.99 -0.66,-28.45 -1.28,3.32 -2.46,6.69 -3.54,10.11 0.53,35.64 0.6,71.44 0.2,107.12 1.09,3.41 2.29,6.78 3.58,10.1 0.68,-32.93 0.98,-65.87 0.42,-98.88 z"
         id="path24" />
      <path
         class="cls-4"
         d="m 11.12,145.85 c -0.03,-3.13 -0.06,-6.25 -0.09,-9.38 -0.7,2.69 -1.33,5.41 -1.9,8.15 0.13,24.17 0.15,48.4 0.07,72.59 0.57,2.7 1.19,5.38 1.88,8.04 0.2,-26.44 0.26,-52.9 0.04,-79.4 z"
         id="path25" />
      <path
         class="cls-4"
         d="m 210.05,145.11 c -0.1,-14.31 -0.54,-28.54 -0.99,-42.76 -1.03,-32.01 -2.17,-63.99 -3.38,-95.94 0,-0.24 -0.02,-0.47 -0.03,-0.71 -2.53,-0.34 -5.07,-0.62 -7.63,-0.85 7.5,115.75 4.66,236.77 -8.34,352.36 2.59,-0.11 5.16,-0.27 7.71,-0.49 5.68,-70.46 13.18,-140.79 12.66,-211.6 z"
         id="path26" />
      <path
         class="cls-4"
         d="m 219.45,88.32 c -0.31,-26.84 -0.68,-53.65 -1.08,-80.44 -1.57,-0.33 -3.16,-0.64 -4.74,-0.93 3.17,115.07 -0.34,234.92 -10.32,349.15 1.8,-0.22 3.59,-0.46 5.37,-0.73 4.46,-74.73 10.68,-149.29 11.02,-224.32 0.07,-14.3 -0.09,-28.53 -0.25,-42.74 z"
         id="path27" />
      <path
         class="cls-4"
         d="m 226.13,110.82 c 0.23,-31.98 0.44,-63.91 0.62,-95.82 0,-1.71 0.02,-3.43 0.03,-5.15 -0.64,-0.17 -1.28,-0.33 -1.92,-0.49 0.16,112.75 -2.21,230.86 -6.93,344.36 0.61,-0.13 1.23,-0.25 1.84,-0.39 2.39,-66.55 5.05,-133.03 5.95,-199.79 0.19,-14.3 0.3,-28.52 0.41,-42.72 z"
         id="path28" />
      <path
         class="cls-4"
         d="m 236.25,118.42 c -0.21,-31.99 -0.48,-63.93 -0.78,-95.85 -0.03,-3.41 -0.07,-6.82 -0.11,-10.24 -1.3,-0.41 -2.61,-0.81 -3.92,-1.19 2.85,111.47 0.83,228.3 -5.85,340.82 1.21,-0.31 2.41,-0.62 3.6,-0.95 3.24,-63.22 6.8,-126.4 7.16,-189.86 0.08,-14.3 0,-28.52 -0.09,-42.73 z"
         id="path29" />
      <path
         class="cls-4"
         d="m 245,144.57 c -0.21,-31.99 -0.48,-63.93 -0.78,-95.85 -0.11,-11.21 -0.23,-22.54 -0.55,-33.54 -1.38,-0.51 -2.76,-1.01 -4.16,-1.49 3.48,108.97 2.24,223.82 -3.55,335.29 1.17,-0.37 2.33,-0.76 3.49,-1.16 2.75,-53.44 5.34,-106.88 5.65,-160.52 0.08,-14.3 0,-28.52 -0.09,-42.73 z"
         id="path30" />
      <path
         class="cls-4"
         d="m 250.61,96.78 c -0.07,-26.35 -0.16,-52.66 -0.27,-78.96 -0.6,-0.25 -1.19,-0.5 -1.79,-0.74 0.92,108.19 -0.41,220.7 -3.91,328.87 0.63,-0.24 1.25,-0.48 1.88,-0.72 1.76,-68.54 3.87,-136.99 4.11,-205.73 0.05,-14.3 0.02,-28.52 -0.02,-42.72 z"
         id="path31" />
      <path
         class="cls-4"
         d="m 254.42,96.78 c -0.07,-25.79 -0.16,-51.55 -0.26,-77.3 -0.59,-0.27 -1.19,-0.53 -1.78,-0.79 0.89,107.19 -0.43,218.57 -3.88,325.74 0.63,-0.25 1.25,-0.51 1.87,-0.77 1.75,-68.01 3.83,-135.95 4.07,-204.16 0.05,-14.3 0.02,-28.52 -0.02,-42.72 z"
         id="path32" />
      <path
         class="cls-4"
         d="m 296.91,162.74 c -0.24,-14.3 -0.65,-28.52 -1.06,-42.72 -0.75,-25.45 -1.53,-50.87 -2.34,-76.28 -0.83,-0.67 -1.66,-1.34 -2.5,-2 -0.03,6.48 -0.07,13.01 -0.11,19.5 -0.01,2.3 -0.03,4.61 -0.04,6.91 2.81,82.9 3.06,167.89 0.74,251.15 1.18,-0.94 2.35,-1.89 3.51,-2.85 1.45,-51.18 2.67,-102.37 1.8,-153.7 z"
         id="path33" />
      <path
         class="cls-4"
         d="m 302.52,98.93 c -0.04,-15.83 -0.09,-31.66 -0.15,-47.47 -0.57,-0.53 -1.14,-1.05 -1.71,-1.57 0.4,87.39 -0.65,177.04 -3.1,264.46 0.59,-0.51 1.18,-1.03 1.77,-1.55 1.51,-57 3.01,-113.98 3.21,-171.16 0.05,-14.3 0.02,-28.52 -0.02,-42.72 z"
         id="path34" />
      <path
         class="cls-4"
         d="m 332.83,272.77 c 0.62,-1.01 1.23,-2.03 1.83,-3.06 1.06,-42.64 1.94,-85.3 2.09,-128.07 0.05,-14.3 0.02,-28.52 -0.02,-42.72 0,-1.17 0,-2.35 -0.01,-3.52 -0.58,-1.04 -1.16,-2.08 -1.76,-3.11 -0.04,59.92 -0.76,120.55 -2.12,180.48 z"
         id="path35" />
      <path
         class="cls-4"
         d="m 287.33,162.71 c 0.21,-31.97 0.4,-63.91 0.59,-95.81 0.05,-9.15 0.11,-18.37 0.14,-27.42 -0.25,-0.19 -0.51,-0.38 -0.77,-0.57 -0.19,92.9 -1.06,189.98 -2.54,285.54 0.23,-0.16 0.45,-0.33 0.68,-0.49 0.65,-39.47 1.24,-78.96 1.58,-118.53 0.13,-14.3 0.22,-28.52 0.31,-42.72 z"
         id="path36" />
      <path
         class="cls-4"
         d="m 290.31,157.05 c 0.19,-29.67 0.38,-59.3 0.55,-88.9 0.01,-2.3 0.03,-4.61 0.04,-6.91 0.04,-6.49 0.08,-13.02 0.11,-19.5 -0.25,-0.2 -0.5,-0.39 -0.75,-0.58 0,3.2 -0.02,6.39 -0.03,9.6 -0.26,88.7 -1.13,180.85 -2.55,271.56 0.23,-0.17 0.45,-0.34 0.67,-0.51 0.68,-40.63 1.28,-81.29 1.64,-122.04 0.13,-14.3 0.22,-28.52 0.31,-42.72 z"
         id="path37" />
      <path
         class="cls-4"
         d="m 313.38,298.84 c 0.8,-46.82 1.54,-93.66 1.96,-140.62 0.13,-14.3 0.22,-28.52 0.31,-42.72 0.11,-16.65 0.21,-33.29 0.32,-49.92 -0.21,-0.25 -0.42,-0.49 -0.64,-0.74 -0.44,77.48 -1.32,156.76 -2.61,234.72 0.22,-0.24 0.44,-0.49 0.66,-0.74 z"
         id="path38" />
      <path
         class="cls-4"
         d="m 316.56,295.2 c 0.72,-42.71 1.37,-85.43 1.75,-128.26 0.13,-14.3 0.22,-28.52 0.31,-42.72 0.12,-18.36 0.23,-36.7 0.35,-55.04 -0.21,-0.26 -0.42,-0.52 -0.64,-0.78 -0.41,75.05 -1.23,151.86 -2.44,227.59 0.23,-0.26 0.45,-0.52 0.67,-0.79 z"
         id="path39" />
    </g>
  </g>
</svg>
