<?xml version="1.0" encoding="UTF-8" standalone="no"?>
<!-- This work (c) 2026 by RMN Creatives LLC is licensed under CC BY 4.0. To view a copy of this license, visit https://creativecommons.org/licenses/by/4.0/ -->
<svg
   viewBox="0 0 353.35999 353.35998"
   version="1.1"
   id="svg13"
   sodipodi:docname="White Stone Finals-01.svg"
   width="353.35999"
   height="353.35999"
   inkscape:version="1.4.2 (ebf0e940d0, 2025-05-08)"
   xmlns:inkscape="http://www.inkscape.org/namespaces/inkscape"
   xmlns:sodipodi="http://sodipodi.sourceforge.net/DTD/sodipodi-0.dtd"
   xmlns="http://www.w3.org/2000/svg"
   xmlns:svg="http://www.w3.org/2000/svg">
  <sodipodi:namedview
     id="namedview13"
     pagecolor="#ffffff"
     bordercolor="#000000"
     borderopacity="0.25"
     inkscape:showpageshadow="2"
     inkscape:pageopacity="0.0"
     inkscape:pagecheckerboard="0"
     inkscape:deskcolor="#d1d1d1"
     inkscape:zoom="2.465069"
     inkscape:cx="175.85715"
     inkscape:cy="178.08832"
     inkscape:window-width="1920"
     inkscape:window-height="1142"
     inkscape:window-x="0"
     inkscape:window-y="26"
     inkscape:window-maximized="1"
     inkscape:current-layer="svg13" />
  <defs
     id="defs6">
    <style
       id="style1">
      .cls-1 {
        filter: url(#AI_GaussianBlur_7);
        opacity: .5;
      }

      .cls-2 {
        fill: #fff;
      }

      .cls-3 {
        fill: none;
      }

      .cls-4 {
        fill: #f9f9f9;
      }

      .cls-5 {
        clip-path: url(#clippath-1);
      }

      .cls-6 {
        fill: #f2f2f2;
      }

      .cls-7 {
        filter: url(#AI_GaussianBlur_4);
      }

      .cls-8 {
        filter: url(#AI_GaussianBlur_9-2);
      }

      .cls-9 {
        clip-path: url(#clippath-2);
      }

      .cls-10 {
        clip-path: url(#clippath);
      }

      .cls-11 {
        filter: url(#AI_GaussianBlur_9);
      }

      .cls-12 {
        fill: #f7f7f7;
      }
    </style>
    <filter
       id="AI_GaussianBlur_4"
       x="-0.028927862"
       y="-0.028927862"
       width="1.0578557"
       height="1.0578557">
      <feGaussianBlur
         stdDeviation="4"
         id="feGaussianBlur1" />
    </filter>
    <filter
       id="AI_GaussianBlur_7"
       x="-0.052342972"
       y="-0.052342972"
       width="1.1046859"
       height="1.1046859">
      <feGaussianBlur
         stdDeviation="7"
         id="feGaussianBlur2" />
    </filter>
    <filter
       id="AI_GaussianBlur_9"
       x="-0.073175691"
       y="-0.073175691"
       width="1.1463514"
       height="1.1463514">
      <feGaussianBlur
         stdDeviation="9"
         id="feGaussianBlur3" />
    </filter>
    <filter
       id="AI_GaussianBlur_9-2"
       data-name="AI_GaussianBlur_9"
       x="-0.079202112"
       y="-0.079202112"
       width="1.1584042"
       height="1.1584042">
      <feGaussianBlur
         stdDeviation="9"
         id="feGaussianBlur4" />
    </filter>
    <clipPath
       id="clippath">
      <path
         class="cls-3"
         d="m 112.03,15.82 c 0,0 6.02,-3.1 21.08,5.58 15.06,8.68 81.59,98.33 93.45,119.95 11.86,21.62 59.97,129.71 62.76,188.29 l 12.55,-9.07 c 0,0 -16.04,-80.2 -27.2,-114.37 C 263.51,172.03 173.55,26.38 139.38,5.41 105.21,-15.56 95.45,-11.38 95.45,-11.38 l 16.57,27.2 z"
         id="path4" />
    </clipPath>
    <clipPath
       id="clippath-1">
      <path
         class="cls-3"
         d="m 151.94,-4.41 c 0,0 27.32,33.58 40.51,49.22 13.19,15.64 50.85,83.98 65.49,110.48 14.64,26.5 50.91,106.7 52.3,166.67 l 6.28,-13.95 c 0,0 -4.88,-68.34 -23.01,-107.4 C 275.38,161.56 191.64,19.89 175.98,5.64 160.32,-8.61 151.95,-11.74 151.95,-11.74 v 7.31 z"
         id="path5" />
    </clipPath>
    <clipPath
       id="clippath-2">
      <path
         class="cls-3"
         d="m 74.22,38.83 c 0,0 4.5,-7.67 13.56,0 9.07,7.67 71.13,87.17 93.45,133.2 22.32,46.03 78.11,148.48 62.76,180.59 l 13.25,-2.16 c 0,0 -2.79,-65.45 -51.61,-151.23 C 156.82,113.45 98.94,25.52 87.78,25.55 76.62,25.58 68.25,35.34 68.25,35.34 l 5.96,3.49 z"
         id="path6" />
    </clipPath>
  </defs>
  <g
     id="Base_Layer"
     data-name="Base Layer"
     transform="translate(-5.1700134,-4.1000061)">
    <circle
       class="cls-2"
       cx="181.85001"
       cy="180.78"
       r="176.67999"
       id="circle6" />
  </g>
  <g
     id="Second_Base"
     data-name="Second Base"
     transform="translate(-5.1700134,-4.1000061)">
    <g
       class="cls-7"
       id="g7">
      <circle
         class="cls-12"
         cx="181.85001"
         cy="180.78"
         r="165.92999"
         id="circle7" />
    </g>
  </g>
  <g
     id="Darker"
     transform="translate(-5.1700134,-4.1000061)">
    <g
       class="cls-1"
       id="g8">
      <circle
         class="cls-6"
         cx="181.85001"
         cy="180.78"
         r="160.48"
         id="circle8" />
    </g>
  </g>
  <g
     id="Lighter"
     transform="translate(-5.1700134,-4.1000061)">
    <g
       class="cls-11"
       id="g9">
      <circle
         class="cls-4"
         cx="181.85001"
         cy="180.78"
         r="147.59"
         id="circle9" />
    </g>
  </g>
  <g
     id="Highlight"
     transform="translate(-5.1700134,-4.1000061)">
    <g
       class="cls-8"
       id="g10">
      <circle
         class="cls-2"
         cx="181.85001"
         cy="180.78"
         r="136.36"
         id="circle10" />
    </g>
  </g>
  <g
     id="Shell_Darker"
     data-name="Shell Darker"
     transform="translate(-5.1700134,-4.1000061)">
    <g
       class="cls-10"
       clip-path="url(#clippath)"
       id="g11">
      <circle
         class="cls-6"
         cx="181.84"
         cy="180.67999"
         r="176.67999"
         id="circle11" />
    </g>
    <g
       class="cls-5"
       clip-path="url(#clippath-1)"
       id="g12">
      <circle
         class="cls-6"
         cx="181.84"
         cy="180.67999"
         r="176.67999"
         id="circle12" />
    </g>
    <g
       class="cls-9"
       clip-path="url(#clippath-2)"
       id="g13">
      <circle
         class="cls-6"
         cx="181.84"
         cy="180.67999"
         r="176.67999"
         id="circle13" />
    </g>
  </g>
</svg>
