<?xml version="1.0" encoding="UTF-8" standalone="no"?>
<!-- This work (c) 2025 by RMN Creatives LLC is licensed under CC BY 4.0. To view a copy of this license, visit https://creativecommons.org/licenses/by/4.0/ -->
<svg
   viewBox="0 0 353.35999 353.35998"
   version="1.1"
   id="svg15"
   sodipodi:docname="White Stone Finals-13.svg"
   width="353.35999"
   height="353.35999"
   inkscape:version="1.4.2 (ebf0e940d0, 2025-05-08)"
   xmlns:inkscape="http://www.inkscape.org/namespaces/inkscape"
   xmlns:sodipodi="http://sodipodi.sourceforge.net/DTD/sodipodi-0.dtd"
   xmlns="http://www.w3.org/2000/svg"
   xmlns:svg="http://www.w3.org/2000/svg">
  <sodipodi:namedview
     id="namedview15"
     pagecolor="#ffffff"
     bordercolor="#000000"
     borderopacity="0.25"
     inkscape:showpageshadow="2"
     inkscape:pageopacity="0.0"
     inkscape:pagecheckerboard="0"
     inkscape:deskcolor="#d1d1d1"
     inkscape:zoom="2.465069"
     inkscape:cx="175.85715"
     inkscape:cy="178.08832"
     inkscape:window-width="1920"
     inkscape:window-height="1142"
     inkscape:window-x="0"
     inkscape:window-y="26"
     inkscape:window-maximized="1"
     inkscape:current-layer="svg15" />
  <defs
     id="defs4">
    <style
       id="style1">
      .cls-1 {
        filter: url(#AI_GaussianBlur_7);
        opacity: .5;
      }

      .cls-2 {
        fill: #fff;
      }

      .cls-3 {
        fill: #f9f9f9;
      }

      .cls-4 {
        fill: #f2f2f2;
      }

      .cls-5 {
        filter: url(#AI_GaussianBlur_4);
      }

      .cls-6 {
        filter: url(#AI_GaussianBlur_9-2);
      }

      .cls-7 {
        filter: url(#AI_GaussianBlur_9);
      }

      .cls-8 {
        fill: #f7f7f7;
      }
    </style>
    <filter
       id="AI_GaussianBlur_4"
       x="-0.028927862"
       y="-0.028927862"
       width="1.0578557"
       height="1.0578557">
      <feGaussianBlur
         stdDeviation="4"
         id="feGaussianBlur1" />
    </filter>
    <filter
       id="AI_GaussianBlur_7"
       x="-0.052342972"
       y="-0.052342972"
       width="1.1046859"
       height="1.1046859">
      <feGaussianBlur
         stdDeviation="7"
         id="feGaussianBlur2" />
    </filter>
    <filter
       id="AI_GaussianBlur_9"
       x="-0.073175691"
       y="-0.073175691"
       width="1.1463514"
       height="1.1463514">
      <feGaussianBlur
         stdDeviation="9"
         id="feGaussianBlur3" />
    </filter>
    <filter
       id="AI_GaussianBlur_9-2"
       data-name="AI_GaussianBlur_9"
       x="-0.079202112"
       y="-0.079202112"
       width="1.1584042"
       height="1.1584042">
      <feGaussianBlur
         stdDeviation="9"
         id="feGaussianBlur4" />
    </filter>
  </defs>
  <g
     id="Base_Layer"
     data-name="Base Layer"
     transform="translate(-5.1700134,-4.1000061)">
    <circle
       class="cls-2"
       cx="181.85001"
       cy="180.78"
       r="176.67999"
       id="circle4" />
  </g>
  <g
     id="Second_Base"
     data-name="Second Base"
     transform="translate(-5.1700134,-4.1000061)">
    <g
       class="cls-5"
       id="g5">
      <circle
         class="cls-8"
         cx="181.85001"
         cy="180.78"
         r="165.92999"
         id="circle5" />
    </g>
  </g>
  <g
     id="Darker"
     transform="translate(-5.1700134,-4.1000061)">
    <g
       class="cls-1"
       id="g6">
      <circle
         class="cls-4"
         cx="181.85001"
         cy="180.78"
         r="160.48"
         id="circle6" />
    </g>
  </g>
  <g
     id="Lighter"
     transform="translate(-5.1700134,-4.1000061)">
    <g
       class="cls-7"
       id="g7">
      <circle
         class="cls-3"
         cx="181.85001"
         cy="180.78"
         r="147.59"
         id="circle7" />
    </g>
  </g>
  <g
     id="Highlight"
     transform="translate(-5.1700134,-4.1000061)">
    <g
       class="cls-6"
       id="g8">
      <circle
         class="cls-2"
         cx="181.85001"
         cy="180.78"
         r="136.36"
         id="circle8" />
    </g>
  </g>
  <g
     id="Layer_9"
     data-name="Layer 9"
     transform="translate(-5.1700134,-4.1000061)">
    <g
       id="g15">
      <path
         class="cls-4"
         d="m 266.23,25.34 c -3.17,-1.74 -6.4,-3.38 -9.68,-4.93 -1.52,7.96 -2.02,17.13 -3.12,23.26 -4.24,23.67 -7.61,47.51 -10.06,71.46 -4.89,47.85 -6.12,96.12 -3.31,144.16 1.53,26.19 4.26,52.3 8.25,78.21 0.31,2.03 0.87,4.26 1.7,6.28 2.19,-0.92 4.35,-1.89 6.5,-2.9 C 240.85,236.3 244.16,128.65 266.24,25.34 Z"
         id="path8" />
      <path
         class="cls-4"
         d="m 283.16,35.9 c -2.7,-1.9 -5.46,-3.74 -8.27,-5.49 -0.19,1.54 -0.39,3 -0.61,4.31 -4.24,24.93 -7.61,50.04 -10.06,75.25 -4.89,50.39 -6.12,101.23 -3.31,151.82 1.36,24.5 3.67,48.95 6.96,73.23 2.44,-1.37 4.85,-2.8 7.22,-4.28 -12.15,-97.87 -9.41,-197.96 8.07,-294.84 z"
         id="path9" />
      <path
         class="cls-4"
         d="m 299.72,49.12 c -2.55,-2.3 -5.17,-4.53 -7.86,-6.68 -0.07,0.42 -0.13,0.84 -0.21,1.23 -4.24,23.67 -7.61,47.51 -10.06,71.46 -4.89,47.85 -6.12,96.12 -3.31,144.16 1.27,21.76 3.38,43.47 6.34,65.05 2.41,-1.74 4.78,-3.54 7.1,-5.39 -11.11,-89.62 -8.39,-181.1 8,-269.82 z"
         id="path10" />
      <path
         class="cls-4"
         d="m 316.38,66.3 c -2.44,-2.88 -4.97,-5.67 -7.58,-8.39 -2.55,17.28 -4.68,34.65 -6.37,52.06 -4.89,50.39 -6.12,101.23 -3.31,151.82 0.88,15.82 2.15,31.62 3.83,47.37 2.47,-2.34 4.87,-4.75 7.21,-7.23 -7.37,-78.39 -5.27,-157.85 6.23,-235.63 z"
         id="path11" />
      <path
         class="cls-4"
         d="m 331.73,87.37 c -2.27,-3.65 -4.67,-7.22 -7.19,-10.69 -1.84,12.78 -3.42,25.6 -4.73,38.45 -4.89,47.85 -6.12,96.12 -3.31,144.16 0.63,10.85 1.48,21.69 2.53,32.5 2.49,-3.08 4.87,-6.24 7.15,-9.48 -5.3,-64.91 -3.43,-130.47 5.56,-194.94 z"
         id="path12" />
      <path
         class="cls-4"
         d="m 348.06,121.27 c -2.02,-5.67 -4.32,-11.21 -6.89,-16.6 -0.18,1.77 -0.36,3.54 -0.53,5.31 -4.89,50.39 -6.12,101.23 -3.31,151.82 0.04,0.72 0.08,1.45 0.13,2.17 2.69,-5.04 5.15,-10.22 7.36,-15.54 -1.66,-42.4 -0.57,-84.93 3.25,-127.16 z"
         id="path13" />
      <path
         class="cls-4"
         d="m 241.51,14.17 c -2,-0.72 -4.02,-1.41 -6.05,-2.07 -0.87,8.4 -1.16,18 -1.79,24.44 -2.49,25.2 -4.46,50.59 -5.9,76.08 -2.87,50.94 -3.59,102.34 -1.94,153.49 0.9,27.88 2.5,55.69 4.83,83.27 0.03,0.4 0.07,0.8 0.12,1.21 1.47,-0.43 2.93,-0.87 4.39,-1.34 -8.91,-111.14 -6.75,-225.45 6.34,-335.09 z"
         id="path14" />
      <path
         class="cls-4"
         d="M 228.13,9.93 C 226.1,9.37 224.06,8.86 222,8.37 c -1.22,9.15 -1.5,20.76 -2.23,28.18 -2.49,25.2 -4.46,50.59 -5.9,76.08 -2.87,50.94 -3.59,102.34 -1.94,153.49 0.9,27.88 2.5,55.69 4.83,83.27 0.12,1.47 0.32,3.03 0.58,4.55 1.42,-0.29 2.83,-0.6 4.23,-0.93 -9.38,-113.75 -7.14,-230.92 6.56,-343.08 z"
         id="path15" />
    </g>
  </g>
</svg>
