<?xml version="1.0" encoding="UTF-8" standalone="no"?>
<svg
   viewBox="0 0 353.35999 353.35998"
   version="1.1"
   id="svg15"
   sodipodi:docname="White Stone Finals-09.svg"
   width="353.35999"
   height="353.35999"
   inkscape:version="1.4.2 (ebf0e940d0, 2025-05-08)"
   xmlns:inkscape="http://www.inkscape.org/namespaces/inkscape"
   xmlns:sodipodi="http://sodipodi.sourceforge.net/DTD/sodipodi-0.dtd"
   xmlns="http://www.w3.org/2000/svg"
   xmlns:svg="http://www.w3.org/2000/svg">
  <sodipodi:namedview
     id="namedview15"
     pagecolor="#ffffff"
     bordercolor="#000000"
     borderopacity="0.25"
     inkscape:showpageshadow="2"
     inkscape:pageopacity="0.0"
     inkscape:pagecheckerboard="0"
     inkscape:deskcolor="#d1d1d1"
     inkscape:zoom="2.465069"
     inkscape:cx="175.85715"
     inkscape:cy="222.71182"
     inkscape:window-width="1920"
     inkscape:window-height="1142"
     inkscape:window-x="0"
     inkscape:window-y="26"
     inkscape:window-maximized="1"
     inkscape:current-layer="svg15" />
  <defs
     id="defs4">
    <style
       id="style1">
      .cls-1 {
        filter: url(#AI_GaussianBlur_7);
        opacity: .5;
      }

      .cls-2 {
        fill: #fff;
      }

      .cls-3 {
        fill: #f9f9f9;
      }

      .cls-4 {
        fill: #f2f2f2;
      }

      .cls-5 {
        filter: url(#AI_GaussianBlur_4);
      }

      .cls-6 {
        filter: url(#AI_GaussianBlur_9-2);
      }

      .cls-7 {
        filter: url(#AI_GaussianBlur_9);
      }

      .cls-8 {
        fill: #f7f7f7;
      }
    </style>
    <filter
       id="AI_GaussianBlur_4"
       x="-0.028927862"
       y="-0.028927862"
       width="1.0578557"
       height="1.0578557">
      <feGaussianBlur
         stdDeviation="4"
         id="feGaussianBlur1" />
    </filter>
    <filter
       id="AI_GaussianBlur_7"
       x="-0.052342972"
       y="-0.052342972"
       width="1.1046859"
       height="1.1046859">
      <feGaussianBlur
         stdDeviation="7"
         id="feGaussianBlur2" />
    </filter>
    <filter
       id="AI_GaussianBlur_9"
       x="-0.073175691"
       y="-0.073175691"
       width="1.1463514"
       height="1.1463514">
      <feGaussianBlur
         stdDeviation="9"
         id="feGaussianBlur3" />
    </filter>
    <filter
       id="AI_GaussianBlur_9-2"
       data-name="AI_GaussianBlur_9"
       x="-0.079202112"
       y="-0.079202112"
       width="1.1584042"
       height="1.1584042">
      <feGaussianBlur
         stdDeviation="9"
         id="feGaussianBlur4" />
    </filter>
  </defs>
  <g
     id="Base_Layer"
     data-name="Base Layer"
     transform="translate(-5.1700134,-4.1000061)">
    <circle
       class="cls-2"
       cx="181.85001"
       cy="180.78"
       r="176.67999"
       id="circle4" />
  </g>
  <g
     id="Second_Base"
     data-name="Second Base"
     transform="translate(-5.1700134,-4.1000061)">
    <g
       class="cls-5"
       id="g5">
      <circle
         class="cls-8"
         cx="181.85001"
         cy="180.78"
         r="165.92999"
         id="circle5" />
    </g>
  </g>
  <g
     id="Darker"
     transform="translate(-5.1700134,-4.1000061)">
    <g
       class="cls-1"
       id="g6">
      <circle
         class="cls-4"
         cx="181.85001"
         cy="180.78"
         r="160.48"
         id="circle6" />
    </g>
  </g>
  <g
     id="Lighter"
     transform="translate(-5.1700134,-4.1000061)">
    <g
       class="cls-7"
       id="g7">
      <circle
         class="cls-3"
         cx="181.85001"
         cy="180.78"
         r="147.59"
         id="circle7" />
    </g>
  </g>
  <g
     id="Highlight"
     transform="translate(-5.1700134,-4.1000061)">
    <g
       class="cls-6"
       id="g8">
      <circle
         class="cls-2"
         cx="181.85001"
         cy="180.78"
         r="136.36"
         id="circle8" />
    </g>
  </g>
  <g
     id="Layer_9"
     data-name="Layer 9"
     transform="translate(-5.1700134,-4.1000061)">
    <g
       id="g15">
      <path
         class="cls-4"
         d="m 181.74,13.14 c 0.6,10.59 1.08,21.2 1.45,31.8 0.76,21.97 1.02,43.95 0.77,65.94 -0.48,43.2 -2.9,86.38 -7.25,129.37 -2.39,23.58 -5.37,47.18 -11.3,70.13 -4.07,15.75 -9.53,31.13 -16.27,45.93 1.54,0.28 3.1,0.54 4.65,0.77 0.02,-0.04 0.04,-0.08 0.06,-0.12 26.53,-56.77 31.98,-120.84 35.06,-183.43 2.62,-53.33 3.8,-106.73 3.54,-160.13 -0.02,-3.45 -0.08,-7.05 -1.54,-10.15 -2.8,-0.16 -5.61,-0.25 -8.44,-0.27 -0.71,3.66 -0.85,8.1 -0.73,10.16 z"
         id="path8" />
      <path
         class="cls-4"
         d="m 194.59,14.24 c 0.6,10.59 1.08,21.2 1.45,31.8 0.76,21.97 1.02,43.95 0.77,65.94 -0.48,43.2 -2.9,86.38 -7.25,129.37 -2.39,23.58 -5.37,47.18 -11.3,70.13 -4.13,15.99 -9.7,31.61 -16.59,46.62 1.59,0.17 3.18,0.32 4.78,0.45 0.09,-0.16 0.17,-0.32 0.24,-0.48 26.53,-56.77 31.98,-120.84 35.06,-183.43 2.62,-53.33 3.8,-106.73 3.54,-160.13 -0.02,-3.42 -0.07,-6.98 -1.5,-10.07 -2.77,-0.36 -5.56,-0.65 -8.37,-0.87 -0.8,3.75 -0.96,8.52 -0.84,10.68 z"
         id="path9" />
      <path
         class="cls-4"
         d="m 212.79,89.1 c -1.65,48.41 -4.9,96.76 -9.74,144.85 -2.65,26.38 -5.79,52.77 -11.34,78.36 -3.47,16.02 -7.88,31.68 -13.17,46.79 0.77,0 1.55,0.02 2.32,0.02 0.62,0 1.24,0 1.86,-0.01 21.93,-61.79 28.07,-131.5 32.3,-199.67 3.14,-50.51 5.43,-101.1 6.87,-151.72 -2.59,-0.61 -5.2,-1.17 -7.84,-1.66 0.01,3.04 0.01,6.08 0.01,9.12 -0.02,24.64 -0.45,49.29 -1.29,73.92 z"
         id="path10" />
      <path
         class="cls-4"
         d="m 313.87,241.47 c -2.28,22.67 -4.92,45.34 -9.14,67.51 2.02,-1.95 3.98,-3.95 5.91,-6 8.69,-44.14 12.38,-90.43 15.21,-136.03 1.72,-27.61 3.18,-55.24 4.39,-82.89 -1.92,-2.95 -3.92,-5.84 -6.01,-8.66 -0.17,7.07 -0.38,14.14 -0.62,21.21 -1.65,48.41 -4.9,96.76 -9.74,144.85 z"
         id="path11" />
      <path
         class="cls-4"
         d="m 317.24,295.56 c 2.18,-2.59 4.29,-5.25 6.32,-7.96 7.63,-41.76 11.05,-85.26 13.71,-128.15 1.19,-19.14 2.26,-38.29 3.2,-57.45 -1.73,-3.5 -3.58,-6.93 -5.54,-10.29 -1.68,47.54 -4.9,95.02 -9.64,142.25 -2.08,20.66 -4.46,41.32 -8.06,61.6 z"
         id="path12" />
      <path
         class="cls-4"
         d="m 259.37,228.03 c -2.65,26.38 -5.79,52.77 -11.34,78.36 -3.27,15.07 -7.36,29.82 -12.24,44.09 1.6,-0.52 3.18,-1.06 4.75,-1.62 20.71,-60.71 26.66,-128.76 30.8,-195.35 2.53,-40.69 4.51,-81.44 5.94,-122.21 -2.29,-1.48 -4.61,-2.9 -6.97,-4.28 -0.16,18.72 -0.56,37.43 -1.2,56.14 -1.65,48.41 -4.9,96.76 -9.74,144.85 z"
         id="path13" />
      <path
         class="cls-4"
         d="m 269.84,233.75 c -2.47,26.35 -5.26,52.72 -9.58,78.27 -1.79,10.64 -3.85,21.12 -6.16,31.38 1.02,-0.46 2.04,-0.94 3.05,-1.42 12.92,-57.38 18.26,-120.65 22.55,-182.66 2.79,-40.37 5.23,-80.8 7.34,-121.25 -1.44,-1.07 -2.9,-2.12 -4.37,-3.15 -0.64,18.03 -1.42,36.07 -2.34,54.09 -2.48,48.38 -5.98,96.69 -10.49,144.73 z"
         id="path14" />
      <path
         class="cls-4"
         d="m 255.01,98.75 c -2.48,48.38 -5.98,96.69 -10.49,144.73 -2.47,26.35 -5.26,52.72 -9.58,78.27 -1.76,10.44 -3.78,20.72 -6.03,30.8 0.98,-0.27 1.95,-0.55 2.92,-0.84 12.92,-57.38 18.26,-120.65 22.55,-182.66 3.37,-48.63 6.22,-97.33 8.58,-146.06 -1.6,-0.83 -3.22,-1.65 -4.85,-2.43 -0.04,1.44 -0.08,2.88 -0.12,4.32 -0.73,24.62 -1.73,49.26 -2.99,73.87 z"
         id="path15" />
    </g>
  </g>
</svg>
