<?xml version="1.0" encoding="UTF-8" standalone="no"?>
<!-- This work (c) 2025 by RMN Creatives LLC is licensed under CC BY 4.0. To view a copy of this license, visit https://creativecommons.org/licenses/by/4.0/ -->
<svg
   viewBox="0 0 353.35999 353.35998"
   version="1.1"
   id="svg13"
   sodipodi:docname="White Stone Finals-04.svg"
   width="353.35999"
   height="353.35999"
   inkscape:version="1.4.2 (ebf0e940d0, 2025-05-08)"
   xmlns:inkscape="http://www.inkscape.org/namespaces/inkscape"
   xmlns:sodipodi="http://sodipodi.sourceforge.net/DTD/sodipodi-0.dtd"
   xmlns="http://www.w3.org/2000/svg"
   xmlns:svg="http://www.w3.org/2000/svg">
  <sodipodi:namedview
     id="namedview13"
     pagecolor="#ffffff"
     bordercolor="#000000"
     borderopacity="0.25"
     inkscape:showpageshadow="2"
     inkscape:pageopacity="0.0"
     inkscape:pagecheckerboard="0"
     inkscape:deskcolor="#d1d1d1"
     inkscape:zoom="2.465069"
     inkscape:cx="175.85715"
     inkscape:cy="178.08832"
     inkscape:window-width="1920"
     inkscape:window-height="1142"
     inkscape:window-x="0"
     inkscape:window-y="26"
     inkscape:window-maximized="1"
     inkscape:current-layer="svg13" />
  <defs
     id="defs4">
    <style
       id="style1">
      .cls-1 {
        filter: url(#AI_GaussianBlur_7);
        opacity: .5;
      }

      .cls-2 {
        fill: #fff;
      }

      .cls-3 {
        fill: #f9f9f9;
      }

      .cls-4 {
        fill: #f2f2f2;
      }

      .cls-5 {
        filter: url(#AI_GaussianBlur_4);
      }

      .cls-6 {
        filter: url(#AI_GaussianBlur_9-2);
      }

      .cls-7 {
        filter: url(#AI_GaussianBlur_9);
      }

      .cls-8 {
        fill: #f7f7f7;
      }
    </style>
    <filter
       id="AI_GaussianBlur_4"
       x="-0.028927862"
       y="-0.028927862"
       width="1.0578557"
       height="1.0578557">
      <feGaussianBlur
         stdDeviation="4"
         id="feGaussianBlur1" />
    </filter>
    <filter
       id="AI_GaussianBlur_7"
       x="-0.052342972"
       y="-0.052342972"
       width="1.1046859"
       height="1.1046859">
      <feGaussianBlur
         stdDeviation="7"
         id="feGaussianBlur2" />
    </filter>
    <filter
       id="AI_GaussianBlur_9"
       x="-0.073175691"
       y="-0.073175691"
       width="1.1463514"
       height="1.1463514">
      <feGaussianBlur
         stdDeviation="9"
         id="feGaussianBlur3" />
    </filter>
    <filter
       id="AI_GaussianBlur_9-2"
       data-name="AI_GaussianBlur_9"
       x="-0.079202112"
       y="-0.079202112"
       width="1.1584042"
       height="1.1584042">
      <feGaussianBlur
         stdDeviation="9"
         id="feGaussianBlur4" />
    </filter>
  </defs>
  <g
     id="Base_Layer"
     data-name="Base Layer"
     transform="translate(-5.1700134,-4.1000061)">
    <circle
       class="cls-2"
       cx="181.85001"
       cy="180.78"
       r="176.67999"
       id="circle4" />
  </g>
  <g
     id="Second_Base"
     data-name="Second Base"
     transform="translate(-5.1700134,-4.1000061)">
    <g
       class="cls-5"
       id="g5">
      <circle
         class="cls-8"
         cx="181.85001"
         cy="180.78"
         r="165.92999"
         id="circle5" />
    </g>
  </g>
  <g
     id="Darker"
     transform="translate(-5.1700134,-4.1000061)">
    <g
       class="cls-1"
       id="g6">
      <circle
         class="cls-4"
         cx="181.85001"
         cy="180.78"
         r="160.48"
         id="circle6" />
    </g>
  </g>
  <g
     id="Lighter"
     transform="translate(-5.1700134,-4.1000061)">
    <g
       class="cls-7"
       id="g7">
      <circle
         class="cls-3"
         cx="181.85001"
         cy="180.78"
         r="147.59"
         id="circle7" />
    </g>
  </g>
  <g
     id="Highlight"
     transform="translate(-5.1700134,-4.1000061)">
    <g
       class="cls-6"
       id="g8">
      <circle
         class="cls-2"
         cx="181.85001"
         cy="180.78"
         r="136.36"
         id="circle8" />
    </g>
  </g>
  <g
     id="Layer_9"
     data-name="Layer 9"
     transform="translate(-5.1700134,-4.1000061)">
    <g
       id="g13">
      <path
         class="cls-4"
         d="m 157.48,8.28 c -0.3,-1.06 -0.62,-2.12 -0.94,-3.18 -5.37,0.79 -10.66,1.83 -15.87,3.09 11.73,17 16.49,46.57 18.33,73.72 3.46,50.91 0.88,102.53 -3.81,153.14 -1.95,21.1 -4.27,42.09 -6.72,63.03 -2.09,17.91 -4.69,36.82 -9.29,53.18 3.51,0.89 7.07,1.67 10.66,2.34 C 161.64,304 166.41,250.16 169.41,196.72 173,132.98 173.89,65.7 157.48,8.26 Z"
         id="path8" />
      <path
         class="cls-4"
         d="m 135.73,9.47 c -2.94,0.81 -5.85,1.69 -8.73,2.64 5.1,17.27 7.41,41.24 8.42,63.57 2.29,50.91 0.58,102.53 -2.52,153.14 -1.29,21.1 -2.82,42.09 -4.44,63.03 -1.41,18.27 -3.17,37.59 -6.33,54.17 2.33,0.85 4.69,1.65 7.07,2.4 7.92,-49.89 11.1,-104.11 13.11,-157.93 2.27,-61.02 2.9,-125.27 -6.57,-181.04 z"
         id="path9" />
      <path
         class="cls-4"
         d="m 119.27,14.88 c -2.7,1.04 -5.36,2.14 -8,3.3 3.99,16.57 5.91,37.69 6.8,57.51 2.29,50.91 0.58,102.53 -2.52,153.14 -1.29,21.1 -2.82,42.09 -4.44,63.03 -1.22,15.82 -2.7,32.43 -5.13,47.36 2.24,1.08 4.52,2.11 6.81,3.1 7.24,-48.19 10.24,-100.19 12.17,-151.82 2.2,-59.06 2.86,-121.14 -5.69,-175.63 z"
         id="path10" />
      <path
         class="cls-4"
         d="m 106.98,20.14 c -1.33,0.63 -2.65,1.27 -3.95,1.94 1.7,15.91 2.55,35.31 2.96,53.61 1.15,50.91 0.29,102.53 -1.26,153.14 -0.65,21.1 -1.41,42.09 -2.22,63.03 -0.57,14.8 -1.26,30.27 -2.34,44.43 1.15,0.61 2.32,1.21 3.49,1.79 3.39,-46.99 4.84,-97.46 5.77,-147.57 1.06,-57.17 1.41,-117.17 -2.45,-170.37 z"
         id="path11" />
      <path
         class="cls-4"
         d="m 84.6,32.82 c -1.21,0.81 -2.4,1.63 -3.59,2.46 0.84,12.21 1.34,25.42 1.62,38.09 1.15,50.91 0.29,102.53 -1.26,153.14 -0.65,21.1 -1.41,42.09 -2.22,63.03 -0.42,10.75 -0.89,21.85 -1.53,32.55 1.14,0.84 2.29,1.67 3.45,2.49 2.85,-43.77 4.14,-90.24 5,-136.4 C 87.04,136.33 87.41,82.13 84.6,32.8 Z"
         id="path12" />
      <path
         class="cls-4"
         d="m 49.25,63.93 c -1.17,1.34 -2.32,2.71 -3.45,4.08 0.08,2.57 0.14,5.13 0.2,7.67 1.15,50.91 0.29,102.53 -1.26,153.14 -0.61,19.76 -1.32,39.44 -2.07,59.06 1.2,1.56 2.43,3.09 3.68,4.61 1.57,-33.35 2.45,-67.76 3.09,-101.99 0.78,-41.93 1.17,-85.4 -0.19,-126.58 z"
         id="path13" />
    </g>
  </g>
</svg>
