<?xml version="1.0" encoding="UTF-8" standalone="no"?>
<svg
   viewBox="0 0 353.35999 353.35998"
   version="1.1"
   id="svg18"
   sodipodi:docname="White Stone Finals-14.svg"
   width="353.35999"
   height="353.35999"
   inkscape:version="1.4.2 (ebf0e940d0, 2025-05-08)"
   xmlns:inkscape="http://www.inkscape.org/namespaces/inkscape"
   xmlns:sodipodi="http://sodipodi.sourceforge.net/DTD/sodipodi-0.dtd"
   xmlns="http://www.w3.org/2000/svg"
   xmlns:svg="http://www.w3.org/2000/svg">
  <sodipodi:namedview
     id="namedview18"
     pagecolor="#ffffff"
     bordercolor="#000000"
     borderopacity="0.25"
     inkscape:showpageshadow="2"
     inkscape:pageopacity="0.0"
     inkscape:pagecheckerboard="0"
     inkscape:deskcolor="#d1d1d1"
     inkscape:zoom="2.465069"
     inkscape:cx="175.85715"
     inkscape:cy="178.08832"
     inkscape:window-width="1920"
     inkscape:window-height="1142"
     inkscape:window-x="0"
     inkscape:window-y="26"
     inkscape:window-maximized="1"
     inkscape:current-layer="svg18" />
  <defs
     id="defs4">
    <style
       id="style1">
      .cls-1 {
        filter: url(#AI_GaussianBlur_7);
        opacity: .5;
      }

      .cls-2 {
        fill: #fff;
      }

      .cls-3 {
        fill: #f9f9f9;
      }

      .cls-4 {
        fill: #f2f2f2;
      }

      .cls-5 {
        filter: url(#AI_GaussianBlur_4);
      }

      .cls-6 {
        filter: url(#AI_GaussianBlur_9-2);
      }

      .cls-7 {
        filter: url(#AI_GaussianBlur_9);
      }

      .cls-8 {
        fill: #f7f7f7;
      }
    </style>
    <filter
       id="AI_GaussianBlur_4"
       x="-0.028927862"
       y="-0.028927862"
       width="1.0578557"
       height="1.0578557">
      <feGaussianBlur
         stdDeviation="4"
         id="feGaussianBlur1" />
    </filter>
    <filter
       id="AI_GaussianBlur_7"
       x="-0.052342972"
       y="-0.052342972"
       width="1.1046859"
       height="1.1046859">
      <feGaussianBlur
         stdDeviation="7"
         id="feGaussianBlur2" />
    </filter>
    <filter
       id="AI_GaussianBlur_9"
       x="-0.073175691"
       y="-0.073175691"
       width="1.1463514"
       height="1.1463514">
      <feGaussianBlur
         stdDeviation="9"
         id="feGaussianBlur3" />
    </filter>
    <filter
       id="AI_GaussianBlur_9-2"
       data-name="AI_GaussianBlur_9"
       x="-0.079202112"
       y="-0.079202112"
       width="1.1584042"
       height="1.1584042">
      <feGaussianBlur
         stdDeviation="9"
         id="feGaussianBlur4" />
    </filter>
  </defs>
  <g
     id="Base_Layer"
     data-name="Base Layer"
     transform="translate(-5.1700134,-4.1000061)">
    <circle
       class="cls-2"
       cx="181.85001"
       cy="180.78"
       r="176.67999"
       id="circle4" />
  </g>
  <g
     id="Second_Base"
     data-name="Second Base"
     transform="translate(-5.1700134,-4.1000061)">
    <g
       class="cls-5"
       id="g5">
      <circle
         class="cls-8"
         cx="181.85001"
         cy="180.78"
         r="165.92999"
         id="circle5" />
    </g>
  </g>
  <g
     id="Darker"
     transform="translate(-5.1700134,-4.1000061)">
    <g
       class="cls-1"
       id="g6">
      <circle
         class="cls-4"
         cx="181.85001"
         cy="180.78"
         r="160.48"
         id="circle6" />
    </g>
  </g>
  <g
     id="Lighter"
     transform="translate(-5.1700134,-4.1000061)">
    <g
       class="cls-7"
       id="g7">
      <circle
         class="cls-3"
         cx="181.85001"
         cy="180.78"
         r="147.59"
         id="circle7" />
    </g>
  </g>
  <g
     id="Highlight"
     transform="translate(-5.1700134,-4.1000061)">
    <g
       class="cls-6"
       id="g8">
      <circle
         class="cls-2"
         cx="181.85001"
         cy="180.78"
         r="136.36"
         id="circle8" />
    </g>
  </g>
  <g
     id="Layer_9"
     data-name="Layer 9"
     transform="translate(-5.1700134,-4.1000061)">
    <g
       id="g18">
      <path
         class="cls-4"
         d="M 122.31,265.28 C 111.49,229.55 100.6,193.65 84.47,160.08 71.02,132.07 54.09,106.06 36.71,80.49 c -1.67,2.42 -3.29,4.88 -4.84,7.39 19.71,29.1 38.72,58.58 53.17,90.71 9.31,20.71 16.62,42.29 23.91,63.84 12.32,36.42 24.69,73.04 33.02,110.55 2.36,0.55 4.73,1.05 7.12,1.5 -3.4,-11.75 -6.87,-23.47 -10.41,-35.17 -5.46,-18.01 -10.91,-36.01 -16.37,-54.02 z"
         id="path8" />
      <path
         class="cls-4"
         d="M 94.09,218.03 C 83.46,189.62 72.77,161.07 57.78,134.69 49.33,119.83 39.59,105.79 29.32,92.14 c -1.25,2.14 -2.45,4.31 -3.61,6.5 12.24,16.29 23.73,33.06 33.34,51.03 8.72,16.31 15.78,33.43 22.83,50.52 8.16,19.79 36.24,104.82 51.12,150.43 1.91,0.55 3.83,1.07 5.76,1.56 -10.41,-33.31 -27.17,-87.37 -28.6,-91.2 -5.36,-14.32 -10.71,-28.64 -16.07,-42.96 z"
         id="path9" />
      <path
         class="cls-4"
         d="M 86.46,226.08 C 75.83,197.67 65.14,169.12 50.15,142.74 42.23,128.81 33.17,115.61 23.61,102.76 c -1.13,2.3 -2.22,4.62 -3.26,6.97 11.39,15.34 22.06,31.13 31.07,47.99 8.72,16.31 15.78,33.43 22.83,50.52 7.5,18.19 31.83,91.49 47.27,138.65 2.02,0.74 4.05,1.44 6.11,2.1 C 117.34,316 103.82,272.46 102.54,269.03 97.18,254.71 91.83,240.39 86.47,226.07 Z"
         id="path10" />
      <path
         class="cls-4"
         d="M 92.18,284.3 C 79.64,249.45 67.03,214.43 52.37,181.56 41.82,157.9 30.32,135.64 18.61,113.83 c -0.68,1.65 -1.33,3.31 -1.96,4.98 13.93,25.92 27.53,52.3 39.78,80.7 8.74,20.26 16.69,41.33 24.62,62.36 10.06,26.67 20.15,53.45 29.5,80.58 1,0.44 2.01,0.88 3.02,1.31 -0.81,-2.26 -1.61,-4.52 -2.42,-6.77 -6.32,-17.57 -12.64,-35.13 -18.96,-52.7 z"
         id="path11" />
      <path
         class="cls-4"
         d="M 84.49,281.15 C 71.95,246.3 59.34,211.28 44.68,178.41 35.68,158.24 26,139.08 16.08,120.36 c -0.63,1.73 -1.24,3.48 -1.82,5.24 12.07,22.74 23.79,45.98 34.48,70.77 8.74,20.26 16.69,41.33 24.62,62.36 9.98,26.48 20.01,53.07 29.3,80 1.02,0.52 2.05,1.02 3.08,1.52 -0.77,-2.13 -1.52,-4.27 -2.29,-6.4 -6.32,-17.57 -12.64,-35.13 -18.96,-52.7 z"
         id="path12" />
      <path
         class="cls-4"
         d="m 10.85,138.75 c -0.08,-0.17 -0.16,-0.34 -0.24,-0.51 -0.25,1.01 -0.49,2.02 -0.72,3.03 5.22,11.25 10.4,22.53 15.55,33.82 8.09,17.73 16.14,35.48 23.91,53.35 8.94,20.58 17.51,41.31 25.65,62.08 5.35,13.66 10.27,27.37 14.69,40.97 0.71,0.44 1.43,0.87 2.15,1.3 C 72.84,279.08 53.08,224.63 27.69,172.88 22.1,161.49 16.27,150.28 10.86,138.75 Z"
         id="path13" />
      <path
         class="cls-4"
         d="m 7.32,161.75 c -0.23,-0.5 -0.47,-1 -0.7,-1.5 -0.14,1.24 -0.28,2.49 -0.39,3.74 5.27,11.34 10.48,22.72 15.68,34.1 8.09,17.73 16.14,35.48 23.91,53.35 8.94,20.58 17.51,41.31 25.65,62.08 0.96,2.45 1.9,4.89 2.83,7.34 0.7,0.54 1.39,1.07 2.1,1.6 C 60.91,279.71 44.31,236.95 24.16,195.88 18.57,184.49 12.74,173.28 7.33,161.75 Z"
         id="path14" />
      <path
         class="cls-4"
         d="m 5.74,191.46 c 0.14,2.34 0.32,4.66 0.55,6.97 1.53,3.35 3.06,6.69 4.59,10.04 8.09,17.73 16.14,35.48 23.91,53.35 5.29,12.17 10.44,24.39 15.45,36.64 1.32,1.48 2.66,2.93 4.02,4.36 C 41.89,270.15 28.55,237.7 13.12,206.25 10.69,201.3 8.21,196.38 5.75,191.45 Z"
         id="path15" />
      <path
         class="cls-4"
         d="m 56.18,56.99 c -0.49,0.5 -0.98,1 -1.46,1.5 7.48,17.21 14.91,34.47 22.31,51.73 11.29,26.33 22.55,52.7 33.52,79.17 12.63,30.49 24.88,61.1 36.67,91.69 9.88,25.63 19.01,51.23 27.21,76.3 0.71,0.03 1.43,0.06 2.14,0.08 C 146.67,274.21 116.05,189.4 79.1,107.57 71.48,90.69 63.62,74.03 56.17,56.99 Z"
         id="path16" />
      <path
         class="cls-4"
         d="m 323.08,132.18 c 11.2,27.03 22.09,54.16 32.64,81.28 0.21,-1.13 0.41,-2.26 0.6,-3.39 -19.95,-53.67 -41.01,-107.3 -64.68,-159.72 -1.85,-4.1 -3.72,-8.19 -5.59,-12.28 -1.37,-1 -2.76,-1.98 -4.16,-2.94 2.56,5.96 5.12,11.91 7.68,17.87 11.29,26.33 22.55,52.7 33.52,79.17 z"
         id="path17" />
      <path
         class="cls-4"
         d="m 309.51,152.53 c 11.71,34.63 23.47,69.44 31.76,105.02 1.35,-2.8 2.63,-5.64 3.83,-8.52 -1.93,-6.55 -3.89,-13.09 -5.87,-19.62 -5.46,-18.01 -10.91,-36.01 -16.37,-54.02 -10.82,-35.73 -21.71,-71.63 -37.84,-105.2 -8.16,-16.99 -17.6,-33.24 -27.64,-49.11 -4.33,-2.05 -8.76,-3.92 -13.28,-5.62 15.43,23.49 29.92,47.51 41.49,73.23 9.31,20.71 16.62,42.29 23.91,63.84 z"
         id="path18" />
    </g>
  </g>
</svg>
