<?xml version="1.0" encoding="UTF-8" standalone="no"?>
<!-- This work (c) 2025 by RMN Creatives LLC is licensed under CC BY 4.0. To view a copy of this license, visit https://creativecommons.org/licenses/by/4.0/ -->
<svg
   viewBox="0 0 353.35999 353.35998"
   version="1.1"
   id="svg14"
   sodipodi:docname="White Stone Finals-10.svg"
   width="353.35999"
   height="353.35999"
   inkscape:version="1.4.2 (ebf0e940d0, 2025-05-08)"
   xmlns:inkscape="http://www.inkscape.org/namespaces/inkscape"
   xmlns:sodipodi="http://sodipodi.sourceforge.net/DTD/sodipodi-0.dtd"
   xmlns="http://www.w3.org/2000/svg"
   xmlns:svg="http://www.w3.org/2000/svg">
  <sodipodi:namedview
     id="namedview14"
     pagecolor="#ffffff"
     bordercolor="#000000"
     borderopacity="0.25"
     inkscape:showpageshadow="2"
     inkscape:pageopacity="0.0"
     inkscape:pagecheckerboard="0"
     inkscape:deskcolor="#d1d1d1"
     inkscape:zoom="2.465069"
     inkscape:cx="175.85715"
     inkscape:cy="178.08832"
     inkscape:window-width="1920"
     inkscape:window-height="1142"
     inkscape:window-x="0"
     inkscape:window-y="26"
     inkscape:window-maximized="1"
     inkscape:current-layer="svg14" />
  <defs
     id="defs4">
    <style
       id="style1">
      .cls-1 {
        filter: url(#AI_GaussianBlur_7);
        opacity: .5;
      }

      .cls-2 {
        fill: #fff;
      }

      .cls-3 {
        fill: #f9f9f9;
      }

      .cls-4 {
        fill: #f2f2f2;
      }

      .cls-5 {
        filter: url(#AI_GaussianBlur_4);
      }

      .cls-6 {
        filter: url(#AI_GaussianBlur_9-2);
      }

      .cls-7 {
        filter: url(#AI_GaussianBlur_9);
      }

      .cls-8 {
        fill: #f7f7f7;
      }
    </style>
    <filter
       id="AI_GaussianBlur_4"
       x="-0.028927862"
       y="-0.028927862"
       width="1.0578557"
       height="1.0578557">
      <feGaussianBlur
         stdDeviation="4"
         id="feGaussianBlur1" />
    </filter>
    <filter
       id="AI_GaussianBlur_7"
       x="-0.052342972"
       y="-0.052342972"
       width="1.1046859"
       height="1.1046859">
      <feGaussianBlur
         stdDeviation="7"
         id="feGaussianBlur2" />
    </filter>
    <filter
       id="AI_GaussianBlur_9"
       x="-0.073175691"
       y="-0.073175691"
       width="1.1463514"
       height="1.1463514">
      <feGaussianBlur
         stdDeviation="9"
         id="feGaussianBlur3" />
    </filter>
    <filter
       id="AI_GaussianBlur_9-2"
       data-name="AI_GaussianBlur_9"
       x="-0.079202112"
       y="-0.079202112"
       width="1.1584042"
       height="1.1584042">
      <feGaussianBlur
         stdDeviation="9"
         id="feGaussianBlur4" />
    </filter>
  </defs>
  <g
     id="Base_Layer"
     data-name="Base Layer"
     transform="translate(-5.1700134,-4.1000061)">
    <circle
       class="cls-2"
       cx="181.85001"
       cy="180.78"
       r="176.67999"
       id="circle4" />
  </g>
  <g
     id="Second_Base"
     data-name="Second Base"
     transform="translate(-5.1700134,-4.1000061)">
    <g
       class="cls-5"
       id="g5">
      <circle
         class="cls-8"
         cx="181.85001"
         cy="180.78"
         r="165.92999"
         id="circle5" />
    </g>
  </g>
  <g
     id="Darker"
     transform="translate(-5.1700134,-4.1000061)">
    <g
       class="cls-1"
       id="g6">
      <circle
         class="cls-4"
         cx="181.85001"
         cy="180.78"
         r="160.48"
         id="circle6" />
    </g>
  </g>
  <g
     id="Lighter"
     transform="translate(-5.1700134,-4.1000061)">
    <g
       class="cls-7"
       id="g7">
      <circle
         class="cls-3"
         cx="181.85001"
         cy="180.78"
         r="147.59"
         id="circle7" />
    </g>
  </g>
  <g
     id="Highlight"
     transform="translate(-5.1700134,-4.1000061)">
    <g
       class="cls-6"
       id="g8">
      <circle
         class="cls-2"
         cx="181.85001"
         cy="180.78"
         r="136.36"
         id="circle8" />
    </g>
  </g>
  <g
     id="Layer_9"
     data-name="Layer 9"
     transform="translate(-5.1700134,-4.1000061)">
    <g
       id="g14">
      <path
         class="cls-4"
         d="m 333.25,108.28 c 0.23,5.85 0.45,11.69 0.66,17.54 0.81,22.82 1.41,45.65 1.47,68.49 0.03,12.64 -0.11,25.28 -0.47,37.92 -0.32,11.34 -0.84,22.73 -3.07,33.85 -0.57,2.84 -1.25,5.77 -1.4,8.65 3.16,-4.99 6.08,-10.15 8.74,-15.46 0.79,-5.05 1.41,-10.12 1.99,-15.2 5.02,-44 7.47,-88.63 2.24,-132.55 -3.08,-7.16 -6.62,-14.08 -10.59,-20.71 -0.09,0.28 -0.16,0.54 -0.22,0.78 -1.06,4.88 0.45,11.67 0.65,16.69 z"
         id="path8" />
      <path
         class="cls-4"
         d="m 303.95,64.13 c -0.26,7.73 -0.25,15.48 -0.24,23.21 0.06,51.99 0.13,103.99 0.19,155.98 0.02,13.45 0.03,26.9 0.77,40.33 0.36,6.56 0.98,13.36 3.49,19.34 0.94,-0.97 1.87,-1.95 2.79,-2.94 1.25,-47.43 -1.43,-94.9 -1.19,-142.35 0.15,-30.26 1.49,-60.52 4,-90.68 0.06,-0.69 0.11,-1.39 0.16,-2.1 -3.33,-3.79 -6.83,-7.43 -10.47,-10.92 0.09,3.59 0.59,7.51 0.5,10.14 z"
         id="path9" />
      <path
         class="cls-4"
         d="m 288.36,217.27 c -2.01,-20.89 -4.02,-41.8 -4.59,-62.78 -0.58,-21.24 0.32,-42.48 1.88,-63.66 0.79,-10.7 1.75,-21.38 2.78,-32.05 0.48,-4.95 1.71,-10.6 1.99,-16.08 -1.79,-1.4 -3.6,-2.77 -5.45,-4.11 -15.83,40.8 -16.34,86.24 -14.7,130.19 0.48,12.84 1.12,25.7 2.96,38.42 2.42,16.78 6.92,33.25 8.57,50.13 1.94,19.86 0.1,40.9 9.05,58.74 0.29,0.58 0.64,1.17 1.04,1.74 2.89,-2.32 5.7,-4.72 8.43,-7.21 -4.3,-13.76 -5.72,-28.25 -7.1,-42.61 -1.62,-16.9 -3.25,-33.81 -4.87,-50.71 z"
         id="path10" />
      <path
         class="cls-4"
         d="m 266.36,328.1 c -1.68,-3.2 -2.19,-6.87 -2.68,-10.46 -6.16,-45.4 -12.32,-90.79 -18.48,-136.19 -2.15,-15.87 -4.31,-31.79 -4.48,-47.8 -0.19,-17.52 2.01,-35.03 6.01,-52.08 3.4,-14.49 8.36,-29.16 17.4,-41.18 1.98,-2.63 6.34,-6.02 9.11,-9.62 -3.73,-2.27 -7.56,-4.41 -11.47,-6.41 -0.54,0.59 -1.01,1.17 -1.39,1.7 -23.76,33.51 -30.39,76.48 -28.91,117.53 1.48,41.05 10.31,81.47 14.53,122.33 2.4,23.21 3.39,46.99 11.72,68.79 0.49,1.29 1.03,2.6 1.85,3.69 3.55,-1.75 7.03,-3.62 10.44,-5.59 -1.45,-1.37 -2.7,-2.91 -3.65,-4.71 z"
         id="path11" />
      <path
         class="cls-4"
         d="m 148.21,287.29 c -10.49,-29.86 -13.69,-61.82 -14,-93.46 -0.23,-23.14 1.05,-46.35 5.1,-69.14 6.24,-35.11 18.98,-68.77 25.78,-103.78 0.95,-4.88 1.73,-10.09 0.95,-14.91 -2.28,0.21 -4.54,0.46 -6.79,0.75 -22.43,61.35 -33.99,126.65 -33.95,191.97 0.02,23.14 1.52,46.55 8.55,68.59 5.55,17.4 14.48,33.72 18.41,51.56 1.58,7.18 2.39,14.7 5.85,21.2 4.06,7.62 10.99,12.62 18.94,16.24 1.67,0.05 3.34,0.07 5.02,0.07 2.25,0 4.49,-0.04 6.72,-0.13 -20.31,-17.82 -31.34,-42.67 -40.58,-68.98 z"
         id="path12" />
      <path
         class="cls-4"
         d="m 100.68,215.7 c 0.13,-16 0.79,-32.01 1.98,-47.97 2.17,-29.07 6.15,-58.01 12.3,-86.51 3.07,-14.22 6.68,-28.33 10.87,-42.27 2.04,-6.8 4.23,-13.56 6.55,-20.26 0.92,-2.65 1.88,-4.88 2.6,-7.03 -4.73,1.31 -9.38,2.82 -13.95,4.51 -0.19,0.43 -0.37,0.86 -0.55,1.29 -5.51,13.34 -9.18,27.35 -12.84,41.31 -9.27,35.39 -18.59,71.08 -20.56,107.62 -1.02,18.96 -0.05,37.97 1.15,56.92 1.96,30.95 4.64,62.28 15.17,91.45 3.66,10.13 8.24,19.91 13.68,29.21 4.4,1.75 8.89,3.34 13.46,4.74 -0.41,-1.94 -1.34,-3.98 -2.37,-5.56 C 104.2,306.13 100.23,259.81 100.64,215.7 Z"
         id="path13" />
      <path
         class="cls-4"
         d="m 46.9,174.11 c -0.3,-12.04 -1.22,-24.06 -1.32,-36.1 -0.14,-15.65 1.1,-31.27 2.99,-46.8 0.93,-7.59 2.01,-15.16 3.17,-22.72 0.32,-2.09 0.86,-4.4 1.39,-6.77 -2.77,3 -5.44,6.1 -8,9.28 -0.28,2.71 -0.46,5.06 -0.65,6.59 -1.99,15.82 -3.2,31.72 -4.41,47.61 -1.73,22.7 -3.47,45.41 -5.2,68.11 -1.08,14.08 -2.15,28.21 -1.52,42.31 0.42,9.24 1.57,18.44 2.72,27.62 0.77,6.15 1.54,12.31 2.31,18.46 3.45,4.9 7.13,9.62 11.05,14.13 -0.2,-1.43 -0.45,-2.86 -0.68,-4.27 -6.43,-38.68 -0.87,-78.25 -1.84,-117.45 z"
         id="path14" />
    </g>
  </g>
</svg>
