<?xml version="1.0" encoding="UTF-8" standalone="no"?>
<!-- Created with Inkscape (http://www.inkscape.org/) -->

<svg
   width="99.527458mm"
   height="99.517532mm"
   viewBox="0 0 99.527458 99.517532"
   version="1.1"
   id="svg1"
   xml:space="preserve"
   sodipodi:docname="circle-bw.svg"
   inkscape:version="1.4.2 (ebf0e940d0, 2025-05-08)"
   xmlns:inkscape="http://www.inkscape.org/namespaces/inkscape"
   xmlns:sodipodi="http://sodipodi.sourceforge.net/DTD/sodipodi-0.dtd"
   xmlns="http://www.w3.org/2000/svg"
   xmlns:svg="http://www.w3.org/2000/svg"><sodipodi:namedview
     id="namedview1"
     pagecolor="#ffffff"
     bordercolor="#000000"
     borderopacity="0.25"
     inkscape:showpageshadow="2"
     inkscape:pageopacity="0.0"
     inkscape:pagecheckerboard="0"
     inkscape:deskcolor="#d1d1d1"
     inkscape:document-units="mm"
     inkscape:zoom="1.5351669"
     inkscape:cx="109.10866"
     inkscape:cy="171.96828"
     inkscape:window-width="1920"
     inkscape:window-height="1142"
     inkscape:window-x="0"
     inkscape:window-y="26"
     inkscape:window-maximized="1"
     inkscape:current-layer="svg1" /><defs
     id="defs1" /><circle
     style="fill:#ffffff;stroke:#000000;stroke-width:0.1;stroke-opacity:0"
     id="path2"
     cx="49.808647"
     cy="49.808647"
     r="49.808647" /><g
     id="layer1"
     transform="translate(-69.038912,-49.332152)"><path
       style="display:inline;fill:#000000;fill-opacity:1"
       d="m 115.79225,148.79966 c -3.20504,-0.21712 -7.01397,-0.81759 -9.525,-1.50158 l -0.55033,-0.1499 -0.0224,-2.68693 -0.0224,-2.68692 h 13.50553 13.50552 v 2.57577 2.57577 l -0.27517,0.0889 c -0.58821,0.19009 -3.12319,0.7859 -4.16983,0.98006 -1.5926,0.29545 -3.27233,0.53088 -4.86833,0.68234 -1.65713,0.15726 -6.02261,0.22782 -7.57767,0.12247 z m -13.03867,-2.57179 c -2.13631,-0.74137 -3.092325,-1.12364 -4.885999,-1.95372 -1.345735,-0.62279 -3.471346,-1.73695 -4.268163,-2.2372 l -0.413168,-0.2594 5.7785,-0.002 5.7785,-0.002 v 2.54 c 0,1.97808 -0.0234,2.53896 -0.10583,2.53528 -0.0582,-0.003 -0.90594,-0.28238 -1.88384,-0.62174 z m 30.861,-2.00068 v -2.45286 l 5.43984,0.002 5.43983,0.001 -0.59267,0.34805 c -2.62002,1.53863 -5.99052,3.07697 -9.03816,4.12515 l -1.24884,0.42952 z m -42.975169,-4.07327 c -4.678594,-3.19466 -8.990826,-7.4183 -12.302178,-12.04943 l -0.602649,-0.84284 v -6.71366 -6.71366 h 13.504333 13.504333 v 13.50434 13.50433 h -6.547339 -6.54734 z m 15.035169,-12.81525 v -13.50434 h 13.50434 13.50433 v 13.50434 13.50433 h -13.50433 -13.50434 z m 27.94,0 v -13.50434 h 13.50434 13.50433 v 6.17823 6.17823 l -0.56221,0.82794 c -3.49685,5.14965 -7.99399,9.66537 -13.12383,13.17807 l -0.9437,0.6462 h -6.18946 -6.18947 z M 76.152079,124.7775 c -1.830449,-3.03096 -3.339664,-6.28009 -4.504658,-9.6979 l -0.424462,-1.24527 h 2.790146 2.790145 v 5.969 c 0,3.28295 -0.01133,5.969 -0.02519,5.969 -0.01385,0 -0.295546,-0.44767 -0.625984,-0.99483 z m 85.402501,-5.5499 v -5.39327 h 2.41462 2.41461 l -0.0559,0.23284 c -0.19643,0.81896 -1.38148,3.90929 -2.15094,5.60916 -0.7134,1.57604 -2.28796,4.58145 -2.54834,4.8641 -0.0424,0.046 -0.0741,-2.22552 -0.0741,-5.31283 z m -90.716476,-6.7691 c -0.310346,-1.07876 -0.821441,-3.35807 -1.058415,-4.72017 -1.126326,-6.47397 -0.966038,-13.231969 0.465799,-19.638701 0.161798,-0.723963 0.351999,-1.516322 0.422669,-1.760797 l 0.12849,-0.4445 h 3.003302 3.003301 V 99.398666 112.903 h -2.918635 -2.918634 z m 6.89648,-13.059834 V 85.894332 H 91.238917 104.74325 V 99.398666 112.903 H 91.238917 77.734584 Z m 27.939996,0 V 85.894332 h 12.05558 12.05558 l 0.0589,0.3175 c 0.20327,1.095794 1.42433,2.314691 2.52579,2.521326 l 0.31282,0.05869 V 100.84742 112.903 h -13.50433 -13.50434 z m 27.94,1.448754 V 88.791844 l 0.31227,-0.05858 c 1.12035,-0.210179 2.36415,-1.456062 2.54088,-2.545148 l 0.0477,-0.293782 h 12.05392 12.05392 V 99.398666 112.903 H 147.11894 133.6146 Z m 27.94,-1.448754 V 85.894332 h 2.65931 2.65931 l 0.26057,1.0795 c 0.96689,4.005588 1.35079,7.016464 1.42228,11.154834 0.0874,5.058274 -0.37489,9.041914 -1.59409,13.737164 l -0.26932,1.03717 h -2.56903 -2.56903 z M 71.176874,84.552753 c 0.690718,-2.325899 1.741556,-4.951894 3.003695,-7.506088 0.849471,-1.719077 2.282001,-4.288714 2.546456,-4.567767 0.04523,-0.04772 0.07623,2.474342 0.07623,6.201834 v 6.282267 h -2.874103 -2.874103 z m 6.55771,-6.609648 v -7.019893 l 0.661972,-0.924756 c 3.049458,-4.260002 7.131197,-8.326517 11.48387,-11.441036 l 0.842843,-0.60309 h 7.00999 7.009991 V 71.458665 84.962999 H 91.238917 77.734584 Z m 27.939996,-6.48444 V 57.95433 h 13.50434 13.50433 v 12.065001 c 0,11.931683 -0.002,12.065001 -0.16616,12.065001 -0.0914,0 -0.37969,0.07989 -0.64067,0.17754 -0.90646,0.33915 -1.90091,1.5113 -2.04725,2.413081 l -0.0467,0.288046 h -12.05392 -12.05393 z m 30.78949,13.186834 c -0.1759,-1.098832 -1.43316,-2.356087 -2.53199,-2.531985 l -0.3175,-0.05082 V 70.00851 57.95433 h 6.65171 6.65171 l 0.86216,0.613834 c 4.67856,3.330985 8.96116,7.717242 12.22926,12.525257 l 0.61383,0.903069 v 6.483254 6.483255 h -12.05418 -12.05418 z m 25.09051,-5.355167 c 0,-3.119967 0.0168,-5.672667 0.0374,-5.672667 0.15441,0 2.11725,3.797706 2.91432,5.638625 0.80091,1.849821 2.04362,5.275085 2.04362,5.632828 0,0.04063 -1.12395,0.07388 -2.49767,0.07388 h -2.49767 z M 92.720583,56.672056 c 1.843106,-1.16994 5.355715,-2.931645 7.704667,-3.864179 1.37703,-0.546681 4.01843,-1.457547 4.2267,-1.457547 0.0635,0 0.0913,0.86458 0.0913,2.836334 v 2.836333 l -6.2865,-8.04e-4 -6.2865,-8.05e-4 z m 12.953997,-2.647647 v -2.998588 l 1.24884,-0.296825 c 4.52629,-1.075821 8.28204,-1.477633 12.93283,-1.383627 4.20511,0.085 7.63322,0.548036 11.557,1.56102 l 1.22767,0.316941 0.0223,2.899834 0.0223,2.899833 h -13.50544 -13.50545 z m 27.94,0.251485 v -2.747103 l 0.43573,0.129397 c 2.01036,0.597013 5.22225,1.939874 7.65145,3.198999 1.32206,0.685264 3.68149,2.048185 3.68149,2.126608 0,0.02156 -2.64795,0.0392 -5.88433,0.0392 h -5.88434 z"
       id="path1" /></g></svg>
