<?xml version="1.0" encoding="UTF-8" standalone="no"?>
<!-- Created with Inkscape (http://www.inkscape.org/) -->

<svg
   width="20.315411mm"
   height="20.30691mm"
   viewBox="0 0 20.315411 20.30691"
   version="1.1"
   id="svg1"
   xml:space="preserve"
   xmlns="http://www.w3.org/2000/svg"
   xmlns:svg="http://www.w3.org/2000/svg"><defs
     id="defs1" />
  <style>
    .icon-part { fill: #000000; } /* Default light mode color */
    @media (prefers-color-scheme: dark) {
    .icon-part { fill: #FFFFFF; } /* Dark mode color */
    }
  </style>

<g
     id="layer1"
     transform="translate(-152.8663,-96.513367)"><path class="icon-part"
       d="m 161.163,116.69869 c -3.10895,-0.56562 -5.89128,-2.66427 -7.26789,-5.482 -0.7215,-1.47682 -1.02982,-2.83658 -1.02881,-4.5372 7e-4,-1.16932 0.0832,-1.82503 0.35537,-2.82524 l 0.17856,-0.65617 h 5.02277 5.02277 l 0.056,0.23284 c 0.17274,0.71872 0.79181,1.39982 1.48589,1.63477 l 0.45104,0.15269 0.0218,5.67262 c 0.0205,5.34844 0.0133,5.6752 -0.127,5.71765 -0.782,0.23664 -3.09064,0.28649 -4.17042,0.09 z m 4.93123,-5.89291 0.0218,-5.6003 0.41358,-0.12059 c 0.57102,-0.16649 1.26442,-0.8599 1.43086,-1.4309 l 0.12056,-0.41357 2.28468,-0.0225 2.28469,-0.0225 0.17893,0.6575 c 0.0984,0.36163 0.21856,0.90516 0.267,1.20784 0.12734,0.7956 0.10928,2.57296 -0.0345,3.39756 -0.59876,3.43352 -2.90627,6.2971 -6.15944,7.64376 -0.40394,0.16721 -0.7559,0.30401 -0.78215,0.30401 -0.0263,0 -0.0379,-2.52013 -0.026,-5.6003 z m -12.33501,-8.39086 c 0.10763,-0.35164 0.66017,-1.27786 1.15051,-1.92859 1.51092,-2.005144 3.83039,-3.417649 6.32704,-3.853029 0.82248,-0.143427 2.59919,-0.161923 3.39756,-0.03537 0.94055,0.149092 0.84667,-0.08076 0.84667,2.072926 v 1.896033 l -0.32551,0.0876 c -0.72949,0.19643 -1.42894,0.89588 -1.62537,1.62537 l -0.0877,0.32551 h -4.87077 -4.87078 z m 14.30788,0.0847 c -0.0183,-0.0582 -0.0761,-0.24549 -0.12855,-0.41619 -0.18696,-0.60882 -0.95488,-1.29448 -1.63205,-1.45724 l -0.23284,-0.056 v -1.818719 c 0,-1.000297 0.0212,-1.818721 0.0471,-1.818721 0.0259,0 0.37761,0.136806 0.78155,0.304014 1.76634,0.731179 3.23554,1.877605 4.35435,3.397726 0.41302,0.56116 0.93912,1.46581 1.03541,1.78043 l 0.0583,0.1905 h -2.12503 c -1.62585,0 -2.13284,-0.0249 -2.15828,-0.10584 z"
       id="path1" /></g></svg>
